<svg xmlns="http://www.w3.org/2000/svg" viewBox="0 0 234 234" width="234" height="234">
	<g id="medical">
		<g id="Group">
			<path id="Shape" style="fill-opacity: 0.702;fill: #ffffff" d="M229.3,138.87c2.91,1.77 4.68,4.87 4.68,8.26v51.42c0,3.34 -1.77,6.49 -4.68,8.26l-42.3,25.74c-4.54,2.67 -8.69,0.95 -10.27,0l-42.3,-25.74c-2.91,-1.77 -4.68,-4.87 -4.68,-8.26v-51.42c0,-3.34 1.77,-6.49 4.68,-8.26l42.3,-25.74c3.15,-1.91 7.11,-1.91 10.27,0zM214.36,193.11v-40.54l-32.52,-19.77l-32.52,19.77v40.54l32.52,19.77z" />
			<path id="Shape" style="fill: #ffffff" d="M99.57,138.87c2.91,1.77 4.68,4.87 4.68,8.26v51.42c0,3.34 -1.77,6.49 -4.68,8.26l-42.3,25.74c-4.54,2.67 -8.69,0.95 -10.27,0l-42.3,-25.74c-2.91,-1.77 -4.68,-4.87 -4.68,-8.26v-51.42c0,-3.34 1.77,-6.49 4.68,-8.26l42.3,-25.74c3.15,-1.91 7.11,-1.91 10.27,0zM84.67,193.11v-40.54l-32.52,-19.77l-32.52,19.77v40.54l32.52,19.77z" />
			<path id="Shape" style="fill: #ffffff" d="M169.14,86.87c0,3.39 -1.77,6.54 -4.73,8.26l-42.3,25.74c-4.54,2.67 -8.69,0.95 -10.27,0l-42.3,-25.74c-2.91,-1.77 -4.68,-4.87 -4.68,-8.26v-51.42c0,-3.34 1.77,-6.49 4.68,-8.26l42.3,-25.74c3.15,-1.91 7.11,-1.91 10.27,0l42.35,25.74c2.91,1.77 4.68,4.87 4.68,8.26zM149.52,81.43v-40.54l-32.52,-19.77l-32.52,19.77v40.54l32.52,19.77z" />
		</g>
	</g>
</svg>