<svg width="234" height="234" viewBox="0 0 234 234" xmlns="http://www.w3.org/2000/svg"><title>docs_logo_white</title><g fill="#FFF" fill-rule="evenodd"><path d="M229.302 138.868l-42.304-25.736a9.913 9.913 0 0 0-10.266 0l-42.304 25.736c-2.913 1.767-4.68 4.918-4.68 8.26v51.425c0 3.39 1.767 6.493 4.68 8.26l42.304 25.736c1.576.955 5.73 2.674 10.266 0l42.304-25.736c2.912-1.767 4.68-4.918 4.68-8.26v-51.424c0-3.39-1.768-6.494-4.68-8.26zm-14.945 54.241l-32.516 19.768-32.516-19.768v-40.537l32.516-19.768 32.516 19.768v40.537z" fill-opacity=".7"/><path d="M99.572 138.868l-42.304-25.736a9.913 9.913 0 0 0-10.266 0L4.698 138.868c-2.912 1.767-4.68 4.918-4.68 8.26v51.425c0 3.39 1.768 6.493 4.68 8.26l42.304 25.736c1.576.955 5.73 2.674 10.266 0l42.304-25.736c2.913-1.767 4.68-4.918 4.68-8.26v-51.424c0-3.39-1.767-6.494-4.68-8.26zM84.675 193.11l-32.516 19.768-32.516-19.768v-40.537l32.516-19.768 32.516 19.768v40.537zM169.14 86.871V35.447c0-3.39-1.766-6.493-4.68-8.26L122.11 1.451a9.913 9.913 0 0 0-10.266 0L69.54 27.187c-2.913 1.767-4.68 4.918-4.68 8.26v51.424c0 3.39 1.767 6.494 4.68 8.26l42.304 25.737c1.576.954 5.73 2.673 10.266 0l42.304-25.736c2.96-1.72 4.727-4.87 4.727-8.26zm-19.624-5.443L117 101.196 84.484 81.428V40.891L117 21.123l32.516 19.768v40.537z"/></g></svg>