<svg width="300" height="300" viewBox="0 0 300 300" xmlns="http://www.w3.org/2000/svg"><title>docs_logo_white_with_bg</title><g fill="none" fill-rule="evenodd"><rect fill="#323232" width="300" height="300" rx="10"/><g fill="#FFF"><path d="M262.302 171.868l-42.304-25.736a9.913 9.913 0 0 0-10.266 0l-42.304 25.736c-2.913 1.767-4.68 4.918-4.68 8.26v51.425c0 3.39 1.767 6.493 4.68 8.26l42.304 25.736c1.576.955 5.73 2.674 10.266 0l42.304-25.736c2.912-1.767 4.68-4.918 4.68-8.26v-51.424c0-3.39-1.768-6.494-4.68-8.26zm-14.945 54.241l-32.516 19.768-32.516-19.768v-40.537l32.516-19.768 32.516 19.768v40.537z" fill-opacity=".7"/><path d="M132.572 171.868l-42.304-25.736a9.913 9.913 0 0 0-10.266 0l-42.304 25.736c-2.912 1.767-4.68 4.918-4.68 8.26v51.425c0 3.39 1.768 6.493 4.68 8.26l42.304 25.736c1.576.955 5.73 2.674 10.266 0l42.304-25.736c2.913-1.767 4.68-4.918 4.68-8.26v-51.424c0-3.39-1.767-6.494-4.68-8.26zm-14.897 54.241l-32.516 19.768-32.516-19.768v-40.537l32.516-19.768 32.516 19.768v40.537zm84.465-106.238V68.447c0-3.39-1.766-6.493-4.68-8.26l-42.35-25.736a9.913 9.913 0 0 0-10.266 0L102.54 60.187c-2.913 1.767-4.68 4.918-4.68 8.26v51.424c0 3.39 1.767 6.494 4.68 8.26l42.304 25.737c1.576.954 5.73 2.673 10.266 0l42.304-25.736c2.96-1.72 4.727-4.87 4.727-8.26zm-19.624-5.443L150 134.196l-32.516-19.768V73.891L150 54.123l32.516 19.768v40.537z"/></g></g></svg>