<svg xmlns="http://www.w3.org/2000/svg" viewBox="0 0 234 234" width="234" height="234"><g fill="#fff"><path d="M229.3 138.87c2.91 1.77 4.68 4.87 4.68 8.26v51.42c0 3.34-1.77 6.49-4.68 8.26L187 232.55c-4.54 2.67-8.69.95-10.27 0l-42.3-25.74c-2.91-1.77-4.68-4.87-4.68-8.26v-51.42c0-3.34 1.77-6.49 4.68-8.26l42.3-25.74a9.92 9.92 0 0 1 10.27 0zm-14.94 54.24v-40.54l-32.52-19.77-32.52 19.77v40.54l32.52 19.77z" fill-opacity=".702"/><path d="M99.57 138.87c2.91 1.77 4.68 4.87 4.68 8.26v51.42c0 3.34-1.77 6.49-4.68 8.26l-42.3 25.74c-4.54 2.67-8.69.95-10.27 0L4.7 206.81c-2.91-1.77-4.68-4.87-4.68-8.26v-51.42c0-3.34 1.77-6.49 4.68-8.26L47 113.13a9.92 9.92 0 0 1 10.27 0zm-14.9 54.24v-40.54L52.15 132.8l-32.52 19.77v40.54l32.52 19.77zm84.47-106.24c0 3.39-1.77 6.54-4.73 8.26l-42.3 25.74c-4.54 2.67-8.69.95-10.27 0l-42.3-25.74c-2.91-1.77-4.68-4.87-4.68-8.26V35.45c0-3.34 1.77-6.49 4.68-8.26l42.3-25.74a9.92 9.92 0 0 1 10.27 0l42.35 25.74c2.91 1.77 4.68 4.87 4.68 8.26zm-19.62-5.44V40.89L117 21.12 84.48 40.89v40.54L117 101.2z"/></g></svg>