<svg width="1440" height="1029" viewBox="0 0 1440 1029" version="1.1" xmlns="http://www.w3.org/2000/svg" xmlns:xlink="http://www.w3.org/1999/xlink">
<title>cells</title>
<desc>Created using Figma</desc>
<g id="Canvas" transform="translate(2037 139)">
<g id="cells">
<g id="cell">
<use xlink:href="#path0_fill" transform="translate(-2066 -125)" fill="#FFFFFF" fill-opacity="0.2"/>
</g>
<g id="cell">
<use xlink:href="#path1_fill" transform="translate(-1955 -125)" fill="#FFFFFF" fill-opacity="0.2"/>
</g>
<g id="cell">
<use xlink:href="#path1_fill" transform="translate(-1844 -125)" fill="#FFFFFF" fill-opacity="0.2"/>
</g>
<g id="cell">
<use xlink:href="#path1_fill" transform="translate(-1733 -125)" fill="#FFFFFF" fill-opacity="0.2"/>
</g>
<g id="cell">
<use xlink:href="#path1_fill" transform="translate(-1622 -125)" fill="#FFFFFF" fill-opacity="0.2"/>
</g>
<g id="cell">
<use xlink:href="#path1_fill" transform="translate(-1511 -125)" fill="#FFFFFF" fill-opacity="0.2"/>
</g>
<g id="cell">
<use xlink:href="#path1_fill" transform="translate(-1400 -125)" fill="#FFFFFF" fill-opacity="0.2"/>
</g>
<g id="cell">
<use xlink:href="#path1_fill" transform="translate(-1289 -125)" fill="#FFFFFF" fill-opacity="0.2"/>
</g>
<g id="cell">
<use xlink:href="#path1_fill" transform="translate(-1178 -125)" fill="#FFFFFF" fill-opacity="0.2"/>
</g>
<g id="cell">
<use xlink:href="#path2_fill" transform="translate(-1067 -125)" fill="#FFFFFF" fill-opacity="0.2"/>
</g>
<g id="cell">
<use xlink:href="#path3_fill" transform="translate(-956 -125)" fill="#FFFFFF" fill-opacity="0.2"/>
</g>
<g id="cell">
<use xlink:href="#path3_fill" transform="translate(-845 -125)" fill="#FFFFFF" fill-opacity="0.2"/>
</g>
<g id="cell">
<use xlink:href="#path3_fill" transform="translate(-734 -125)" fill="#FFFFFF" fill-opacity="0.2"/>
</g>
<g id="cell">
<use xlink:href="#path3_fill" transform="translate(-623 -125)" fill="#FFFFFF" fill-opacity="0.2"/>
</g>
<g id="cell">
<use xlink:href="#path4_fill" transform="translate(-2010 -26)" fill="#FFFFFF" fill-opacity="0.2"/>
</g>
<g id="cell">
<use xlink:href="#path5_fill" transform="translate(-2121 -26)" fill="#FFFFFF" fill-opacity="0.2"/>
</g>
<g id="cell">
<use xlink:href="#path4_fill" transform="translate(-1899 -26)" fill="#FFFFFF" fill-opacity="0.2"/>
</g>
<g id="cell">
<use xlink:href="#path4_fill" transform="translate(-1788 -26)" fill="#FFFFFF" fill-opacity="0.2"/>
</g>
<g id="cell">
<use xlink:href="#path4_fill" transform="translate(-1677 -26)" fill="#FFFFFF" fill-opacity="0.2"/>
</g>
<g id="cell">
<use xlink:href="#path4_fill" transform="translate(-1566 -26)" fill="#FFFFFF" fill-opacity="0.2"/>
</g>
<g id="cell">
<use xlink:href="#path4_fill" transform="translate(-1455 -26)" fill="#FFFFFF" fill-opacity="0.2"/>
</g>
<g id="cell">
<use xlink:href="#path4_fill" transform="translate(-1344 -26)" fill="#FFFFFF" fill-opacity="0.2"/>
</g>
<g id="cell">
<use xlink:href="#path4_fill" transform="translate(-1233 -26)" fill="#FFFFFF" fill-opacity="0.2"/>
</g>
<g id="cell">
<use xlink:href="#path6_fill" transform="translate(-1122 -26)" fill="#FFFFFF" fill-opacity="0.2"/>
</g>
<g id="cell">
<use xlink:href="#path7_fill" transform="translate(-1011 -26)" fill="#FFFFFF" fill-opacity="0.2"/>
</g>
<g id="cell">
<use xlink:href="#path7_fill" transform="translate(-900 -26)" fill="#FFFFFF" fill-opacity="0.2"/>
</g>
<g id="cell">
<use xlink:href="#path7_fill" transform="translate(-789 -26)" fill="#FFFFFF" fill-opacity="0.2"/>
</g>
<g id="cell">
<use xlink:href="#path7_fill" transform="translate(-678 -26)" fill="#FFFFFF" fill-opacity="0.2"/>
</g>
<g id="cell">
<use xlink:href="#path8_fill" transform="translate(-2010 -224)" fill="#FFFFFF" fill-opacity="0.2"/>
</g>
<g id="cell">
<use xlink:href="#path9_fill" transform="translate(-2121 -224)" fill="#FFFFFF" fill-opacity="0.2"/>
</g>
<g id="cell">
<use xlink:href="#path8_fill" transform="translate(-1899 -224)" fill="#FFFFFF" fill-opacity="0.2"/>
</g>
<g id="cell">
<use xlink:href="#path8_fill" transform="translate(-1788 -224)" fill="#FFFFFF" fill-opacity="0.2"/>
</g>
<g id="cell">
<use xlink:href="#path8_fill" transform="translate(-1677 -224)" fill="#FFFFFF" fill-opacity="0.2"/>
</g>
<g id="cell">
<use xlink:href="#path8_fill" transform="translate(-1566 -224)" fill="#FFFFFF" fill-opacity="0.2"/>
</g>
<g id="cell">
<use xlink:href="#path8_fill" transform="translate(-1455 -224)" fill="#FFFFFF" fill-opacity="0.2"/>
</g>
<g id="cell">
<use xlink:href="#path8_fill" transform="translate(-1344 -224)" fill="#FFFFFF" fill-opacity="0.2"/>
</g>
<g id="cell">
<use xlink:href="#path8_fill" transform="translate(-1233 -224)" fill="#FFFFFF" fill-opacity="0.2"/>
</g>
<g id="cell">
<use xlink:href="#path10_fill" transform="translate(-1122 -224)" fill="#FFFFFF" fill-opacity="0.2"/>
</g>
<g id="cell">
<use xlink:href="#path11_fill" transform="translate(-1011 -224)" fill="#FFFFFF" fill-opacity="0.2"/>
</g>
<g id="cell">
<use xlink:href="#path11_fill" transform="translate(-900 -224)" fill="#FFFFFF" fill-opacity="0.2"/>
</g>
<g id="cell">
<use xlink:href="#path11_fill" transform="translate(-789 -224)" fill="#FFFFFF" fill-opacity="0.2"/>
</g>
<g id="cell">
<use xlink:href="#path11_fill" transform="translate(-678 -224)" fill="#FFFFFF" fill-opacity="0.2"/>
</g>
<g id="cell">
<use xlink:href="#path12_fill" transform="translate(-2065 73)" fill="#FFFFFF" fill-opacity="0.2"/>
</g>
<g id="cell">
<use xlink:href="#path13_fill" transform="translate(-1954 73)" fill="#FFFFFF" fill-opacity="0.2"/>
</g>
<g id="cell">
<use xlink:href="#path13_fill" transform="translate(-1843 73)" fill="#FFFFFF" fill-opacity="0.2"/>
</g>
<g id="cell">
<use xlink:href="#path13_fill" transform="translate(-1732 73)" fill="#FFFFFF" fill-opacity="0.2"/>
</g>
<g id="cell">
<use xlink:href="#path13_fill" transform="translate(-1621 73)" fill="#FFFFFF" fill-opacity="0.2"/>
</g>
<g id="cell">
<use xlink:href="#path13_fill" transform="translate(-1510 73)" fill="#FFFFFF" fill-opacity="0.2"/>
</g>
<g id="cell">
<use xlink:href="#path13_fill" transform="translate(-1399 73)" fill="#FFFFFF" fill-opacity="0.2"/>
</g>
<g id="cell">
<use xlink:href="#path13_fill" transform="translate(-1288 73)" fill="#FFFFFF" fill-opacity="0.2"/>
</g>
<g id="cell">
<use xlink:href="#path13_fill" transform="translate(-1177 73)" fill="#FFFFFF" fill-opacity="0.2"/>
</g>
<g id="cell">
<use xlink:href="#path14_fill" transform="translate(-1066 73)" fill="#FFFFFF" fill-opacity="0.2"/>
</g>
<g id="cell">
<use xlink:href="#path15_fill" transform="translate(-955 73)" fill="#FFFFFF" fill-opacity="0.2"/>
</g>
<g id="cell">
<use xlink:href="#path15_fill" transform="translate(-844 73)" fill="#FFFFFF" fill-opacity="0.2"/>
</g>
<g id="cell">
<use xlink:href="#path15_fill" transform="translate(-733 73)" fill="#FFFFFF" fill-opacity="0.2"/>
</g>
<g id="cell">
<use xlink:href="#path15_fill" transform="translate(-622 73)" fill="#FFFFFF" fill-opacity="0.2"/>
</g>
<g id="cell">
<use xlink:href="#path16_fill" transform="translate(-2009 172)" fill="#FFFFFF" fill-opacity="0.2"/>
</g>
<g id="cell">
<use xlink:href="#path17_fill" transform="translate(-2120 172)" fill="#FFFFFF" fill-opacity="0.2"/>
</g>
<g id="cell">
<use xlink:href="#path16_fill" transform="translate(-1898 172)" fill="#FFFFFF" fill-opacity="0.2"/>
</g>
<g id="cell">
<use xlink:href="#path16_fill" transform="translate(-1787 172)" fill="#FFFFFF" fill-opacity="0.2"/>
</g>
<g id="cell">
<use xlink:href="#path16_fill" transform="translate(-1676 172)" fill="#FFFFFF" fill-opacity="0.2"/>
</g>
<g id="cell">
<use xlink:href="#path16_fill" transform="translate(-1565 172)" fill="#FFFFFF" fill-opacity="0.2"/>
</g>
<g id="cell">
<use xlink:href="#path16_fill" transform="translate(-1454 172)" fill="#FFFFFF" fill-opacity="0.2"/>
</g>
<g id="cell">
<use xlink:href="#path16_fill" transform="translate(-1343 172)" fill="#FFFFFF" fill-opacity="0.2"/>
</g>
<g id="cell">
<use xlink:href="#path16_fill" transform="translate(-1232 172)" fill="#FFFFFF" fill-opacity="0.2"/>
</g>
<g id="cell">
<use xlink:href="#path18_fill" transform="translate(-1121 172)" fill="#FFFFFF" fill-opacity="0.2"/>
</g>
<g id="cell">
<use xlink:href="#path19_fill" transform="translate(-1010 172)" fill="#FFFFFF" fill-opacity="0.2"/>
</g>
<g id="cell">
<use xlink:href="#path19_fill" transform="translate(-899 172)" fill="#FFFFFF" fill-opacity="0.2"/>
</g>
<g id="cell">
<use xlink:href="#path19_fill" transform="translate(-788 172)" fill="#FFFFFF" fill-opacity="0.2"/>
</g>
<g id="cell">
<use xlink:href="#path19_fill" transform="translate(-677 172)" fill="#FFFFFF" fill-opacity="0.2"/>
</g>
<g id="cell">
<use xlink:href="#path20_fill" transform="translate(-2064 271)" fill="#FFFFFF" fill-opacity="0.2"/>
</g>
<g id="cell">
<use xlink:href="#path21_fill" transform="translate(-1953 271)" fill="#FFFFFF" fill-opacity="0.2"/>
</g>
<g id="cell">
<use xlink:href="#path21_fill" transform="translate(-1842 271)" fill="#FFFFFF" fill-opacity="0.2"/>
</g>
<g id="cell">
<use xlink:href="#path21_fill" transform="translate(-1731 271)" fill="#FFFFFF" fill-opacity="0.2"/>
</g>
<g id="cell">
<use xlink:href="#path21_fill" transform="translate(-1620 271)" fill="#FFFFFF" fill-opacity="0.2"/>
</g>
<g id="cell">
<use xlink:href="#path21_fill" transform="translate(-1509 271)" fill="#FFFFFF" fill-opacity="0.2"/>
</g>
<g id="cell">
<use xlink:href="#path21_fill" transform="translate(-1398 271)" fill="#FFFFFF" fill-opacity="0.2"/>
</g>
<g id="cell">
<use xlink:href="#path21_fill" transform="translate(-1287 271)" fill="#FFFFFF" fill-opacity="0.2"/>
</g>
<g id="cell">
<use xlink:href="#path21_fill" transform="translate(-1176 271)" fill="#FFFFFF" fill-opacity="0.2"/>
</g>
<g id="cell">
<use xlink:href="#path22_fill" transform="translate(-1065 271)" fill="#FFFFFF" fill-opacity="0.2"/>
</g>
<g id="cell">
<use xlink:href="#path23_fill" transform="translate(-954 271)" fill="#FFFFFF" fill-opacity="0.2"/>
</g>
<g id="cell">
<use xlink:href="#path23_fill" transform="translate(-843 271)" fill="#FFFFFF" fill-opacity="0.2"/>
</g>
<g id="cell">
<use xlink:href="#path23_fill" transform="translate(-732 271)" fill="#FFFFFF" fill-opacity="0.2"/>
</g>
<g id="cell">
<use xlink:href="#path23_fill" transform="translate(-621 271)" fill="#FFFFFF" fill-opacity="0.2"/>
</g>
<g id="cell">
<use xlink:href="#path21_fill" transform="translate(-2008 370)" fill="#FFFFFF" fill-opacity="0.2"/>
</g>
<g id="cell">
<use xlink:href="#path24_fill" transform="translate(-2119 370)" fill="#FFFFFF" fill-opacity="0.2"/>
</g>
<g id="cell">
<use xlink:href="#path21_fill" transform="translate(-1897 370)" fill="#FFFFFF" fill-opacity="0.2"/>
</g>
<g id="cell">
<use xlink:href="#path21_fill" transform="translate(-1786 370)" fill="#FFFFFF" fill-opacity="0.2"/>
</g>
<g id="cell">
<use xlink:href="#path21_fill" transform="translate(-1675 370)" fill="#FFFFFF" fill-opacity="0.2"/>
</g>
<g id="cell">
<use xlink:href="#path21_fill" transform="translate(-1564 370)" fill="#FFFFFF" fill-opacity="0.2"/>
</g>
<g id="cell">
<use xlink:href="#path21_fill" transform="translate(-1453 370)" fill="#FFFFFF" fill-opacity="0.2"/>
</g>
<g id="cell">
<use xlink:href="#path21_fill" transform="translate(-1342 370)" fill="#FFFFFF" fill-opacity="0.2"/>
</g>
<g id="cell">
<use xlink:href="#path21_fill" transform="translate(-1231 370)" fill="#FFFFFF" fill-opacity="0.2"/>
</g>
<g id="cell">
<use xlink:href="#path25_fill" transform="translate(-1120 370)" fill="#FFFFFF" fill-opacity="0.2"/>
</g>
<g id="cell">
<use xlink:href="#path23_fill" transform="translate(-1009 370)" fill="#FFFFFF" fill-opacity="0.2"/>
</g>
<g id="cell">
<use xlink:href="#path23_fill" transform="translate(-898 370)" fill="#FFFFFF" fill-opacity="0.2"/>
</g>
<g id="cell">
<use xlink:href="#path23_fill" transform="translate(-787 370)" fill="#FFFFFF" fill-opacity="0.2"/>
</g>
<g id="cell">
<use xlink:href="#path23_fill" transform="translate(-676 370)" fill="#FFFFFF" fill-opacity="0.2"/>
</g>
<g id="cell">
<use xlink:href="#path26_fill" transform="translate(-2063 469)" fill="#FFFFFF" fill-opacity="0.2"/>
</g>
<g id="cell">
<use xlink:href="#path27_fill" transform="translate(-1952 469)" fill="#FFFFFF" fill-opacity="0.2"/>
</g>
<g id="cell">
<use xlink:href="#path27_fill" transform="translate(-1841 469)" fill="#FFFFFF" fill-opacity="0.2"/>
</g>
<g id="cell">
<use xlink:href="#path27_fill" transform="translate(-1730 469)" fill="#FFFFFF" fill-opacity="0.2"/>
</g>
<g id="cell">
<use xlink:href="#path27_fill" transform="translate(-1619 469)" fill="#FFFFFF" fill-opacity="0.2"/>
</g>
<g id="cell">
<use xlink:href="#path27_fill" transform="translate(-1508 469)" fill="#FFFFFF" fill-opacity="0.2"/>
</g>
<g id="cell">
<use xlink:href="#path27_fill" transform="translate(-1397 469)" fill="#FFFFFF" fill-opacity="0.2"/>
</g>
<g id="cell">
<use xlink:href="#path27_fill" transform="translate(-1286 469)" fill="#FFFFFF" fill-opacity="0.2"/>
</g>
<g id="cell">
<use xlink:href="#path27_fill" transform="translate(-1175 469)" fill="#FFFFFF" fill-opacity="0.2"/>
</g>
<g id="cell">
<use xlink:href="#path28_fill" transform="translate(-1064 469)" fill="#FFFFFF" fill-opacity="0.2"/>
</g>
<g id="cell">
<use xlink:href="#path29_fill" transform="translate(-953 469)" fill="#FFFFFF" fill-opacity="0.2"/>
</g>
<g id="cell">
<use xlink:href="#path29_fill" transform="translate(-842 469)" fill="#FFFFFF" fill-opacity="0.2"/>
</g>
<g id="cell">
<use xlink:href="#path29_fill" transform="translate(-731 469)" fill="#FFFFFF" fill-opacity="0.2"/>
</g>
<g id="cell">
<use xlink:href="#path29_fill" transform="translate(-620 469)" fill="#FFFFFF" fill-opacity="0.2"/>
</g>
<g id="cell">
<use xlink:href="#path30_fill" transform="translate(-2007 568)" fill="#FFFFFF" fill-opacity="0.2"/>
</g>
<g id="cell">
<use xlink:href="#path31_fill" transform="translate(-2118 568)" fill="#FFFFFF" fill-opacity="0.2"/>
</g>
<g id="cell">
<use xlink:href="#path30_fill" transform="translate(-1896 568)" fill="#FFFFFF" fill-opacity="0.2"/>
</g>
<g id="cell">
<use xlink:href="#path30_fill" transform="translate(-1785 568)" fill="#FFFFFF" fill-opacity="0.2"/>
</g>
<g id="cell">
<use xlink:href="#path30_fill" transform="translate(-1674 568)" fill="#FFFFFF" fill-opacity="0.2"/>
</g>
<g id="cell">
<use xlink:href="#path30_fill" transform="translate(-1563 568)" fill="#FFFFFF" fill-opacity="0.2"/>
</g>
<g id="cell">
<use xlink:href="#path30_fill" transform="translate(-1452 568)" fill="#FFFFFF" fill-opacity="0.2"/>
</g>
<g id="cell">
<use xlink:href="#path30_fill" transform="translate(-1341 568)" fill="#FFFFFF" fill-opacity="0.2"/>
</g>
<g id="cell">
<use xlink:href="#path30_fill" transform="translate(-1230 568)" fill="#FFFFFF" fill-opacity="0.2"/>
</g>
<g id="cell">
<use xlink:href="#path32_fill" transform="translate(-1119 568)" fill="#FFFFFF" fill-opacity="0.2"/>
</g>
<g id="cell">
<use xlink:href="#path33_fill" transform="translate(-1008 568)" fill="#FFFFFF" fill-opacity="0.2"/>
</g>
<g id="cell">
<use xlink:href="#path33_fill" transform="translate(-897 568)" fill="#FFFFFF" fill-opacity="0.2"/>
</g>
<g id="cell">
<use xlink:href="#path33_fill" transform="translate(-786 568)" fill="#FFFFFF" fill-opacity="0.2"/>
</g>
<g id="cell">
<use xlink:href="#path33_fill" transform="translate(-675 568)" fill="#FFFFFF" fill-opacity="0.2"/>
</g>
<g id="cell">
<use xlink:href="#path30_fill" transform="translate(-2007 765)" fill="#FFFFFF" fill-opacity="0.2"/>
</g>
<g id="cell">
<use xlink:href="#path31_fill" transform="translate(-2118 765)" fill="#FFFFFF" fill-opacity="0.2"/>
</g>
<g id="cell">
<use xlink:href="#path30_fill" transform="translate(-1896 765)" fill="#FFFFFF" fill-opacity="0.2"/>
</g>
<g id="cell">
<use xlink:href="#path30_fill" transform="translate(-1785 765)" fill="#FFFFFF" fill-opacity="0.2"/>
</g>
<g id="cell">
<use xlink:href="#path30_fill" transform="translate(-1674 765)" fill="#FFFFFF" fill-opacity="0.2"/>
</g>
<g id="cell">
<use xlink:href="#path30_fill" transform="translate(-1563 765)" fill="#FFFFFF" fill-opacity="0.2"/>
</g>
<g id="cell">
<use xlink:href="#path30_fill" transform="translate(-1452 765)" fill="#FFFFFF" fill-opacity="0.2"/>
</g>
<g id="cell">
<use xlink:href="#path30_fill" transform="translate(-1341 765)" fill="#FFFFFF" fill-opacity="0.2"/>
</g>
<g id="cell">
<use xlink:href="#path30_fill" transform="translate(-1230 765)" fill="#FFFFFF" fill-opacity="0.2"/>
</g>
<g id="cell">
<use xlink:href="#path32_fill" transform="translate(-1119 765)" fill="#FFFFFF" fill-opacity="0.2"/>
</g>
<g id="cell">
<use xlink:href="#path33_fill" transform="translate(-1008 765)" fill="#FFFFFF" fill-opacity="0.2"/>
</g>
<g id="cell">
<use xlink:href="#path33_fill" transform="translate(-897 765)" fill="#FFFFFF" fill-opacity="0.2"/>
</g>
<g id="cell">
<use xlink:href="#path33_fill" transform="translate(-786 765)" fill="#FFFFFF" fill-opacity="0.2"/>
</g>
<g id="cell">
<use xlink:href="#path33_fill" transform="translate(-675 765)" fill="#FFFFFF" fill-opacity="0.2"/>
</g>
<g id="cell">
<use xlink:href="#path34_fill" transform="translate(-2063 667)" fill="#FFFFFF" fill-opacity="0.2"/>
</g>
<g id="cell">
<use xlink:href="#path30_fill" transform="translate(-1952 667)" fill="#FFFFFF" fill-opacity="0.2"/>
</g>
<g id="cell">
<use xlink:href="#path30_fill" transform="translate(-1841 667)" fill="#FFFFFF" fill-opacity="0.2"/>
</g>
<g id="cell">
<use xlink:href="#path30_fill" transform="translate(-1730 667)" fill="#FFFFFF" fill-opacity="0.2"/>
</g>
<g id="cell">
<use xlink:href="#path30_fill" transform="translate(-1619 667)" fill="#FFFFFF" fill-opacity="0.2"/>
</g>
<g id="cell">
<use xlink:href="#path30_fill" transform="translate(-1508 667)" fill="#FFFFFF" fill-opacity="0.2"/>
</g>
<g id="cell">
<use xlink:href="#path30_fill" transform="translate(-1397 667)" fill="#FFFFFF" fill-opacity="0.2"/>
</g>
<g id="cell">
<use xlink:href="#path30_fill" transform="translate(-1286 667)" fill="#FFFFFF" fill-opacity="0.2"/>
</g>
<g id="cell">
<use xlink:href="#path30_fill" transform="translate(-1175 667)" fill="#FFFFFF" fill-opacity="0.2"/>
</g>
<g id="cell">
<use xlink:href="#path35_fill" transform="translate(-1064 667)" fill="#FFFFFF" fill-opacity="0.2"/>
</g>
<g id="cell">
<use xlink:href="#path33_fill" transform="translate(-953 667)" fill="#FFFFFF" fill-opacity="0.2"/>
</g>
<g id="cell">
<use xlink:href="#path33_fill" transform="translate(-842 667)" fill="#FFFFFF" fill-opacity="0.2"/>
</g>
<g id="cell">
<use xlink:href="#path33_fill" transform="translate(-731 667)" fill="#FFFFFF" fill-opacity="0.2"/>
</g>
<g id="cell">
<use xlink:href="#path33_fill" transform="translate(-620 667)" fill="#FFFFFF" fill-opacity="0.2"/>
</g>
</g>
</g>
<defs>
<path id="path0_fill" fill-rule="evenodd" d="M 101.244 27.3842C 104.204 29.1649 106 32.2932 106 35.7102L 106 87.5429C 106 90.9599 104.204 94.1363 101.195 95.8689L 58.1932 121.809C 53.5824 124.504 49.3599 122.772 47.7583 121.809L 4.75635 95.8689C 1.7959 94.0882 0 90.9599 0 87.5429L 0 35.7102C 0 32.3413 1.7959 29.1649 4.75635 27.3842L 47.7583 1.44381C 50.9615 -0.48127 54.9899 -0.48127 58.1932 1.44381L 101.244 27.3842ZM 98.0577 29.5758C 100.823 31.2389 102.5 34.1606 102.5 37.352L 102.5 85.7618C 102.5 88.9531 100.823 91.9198 98.0123 93.5379L 57.8502 117.765C 53.5439 120.282 49.6002 118.664 48.1044 117.765L 7.94238 93.5379C 5.17725 91.8748 3.5 88.9531 3.5 85.7618L 3.5 37.352C 3.5 34.2056 5.17725 31.2389 7.94238 29.5758L 48.1044 5.34846C 51.0962 3.55051 54.8585 3.55051 57.8502 5.34846L 98.0577 29.5758Z"/>
<path id="path1_fill" fill-rule="evenodd" d="M 101.244 27.3842C 104.204 29.1649 106 32.2932 106 35.7102L 106 87.5429C 106 90.9599 104.204 94.1363 101.195 95.8689L 58.1932 121.809C 53.5824 124.504 49.3599 122.772 47.7583 121.809L 4.75647 95.8689C 1.79578 94.0882 0 90.9599 0 87.5429L 0 35.7102C 0 32.3413 1.79578 29.1649 4.75647 27.3842L 47.7583 1.44381C 50.9615 -0.48127 54.9899 -0.48127 58.1932 1.44381L 101.244 27.3842ZM 98.0577 29.5758C 100.823 31.2389 102.5 34.1606 102.5 37.352L 102.5 85.7618C 102.5 88.9531 100.823 91.9198 98.0123 93.5379L 57.8502 117.765C 53.5439 120.282 49.6002 118.664 48.1044 117.765L 7.94226 93.5379C 5.17725 91.8748 3.5 88.9531 3.5 85.7618L 3.5 37.352C 3.5 34.2056 5.17725 31.2389 7.94226 29.5758L 48.1044 5.34846C 51.0962 3.55051 54.8585 3.55051 57.8502 5.34846L 98.0577 29.5758Z"/>
<path id="path2_fill" fill-rule="evenodd" d="M 101.244 27.3842C 104.204 29.1649 106 32.2932 106 35.7102L 106 87.5429C 106 90.9599 104.204 94.1363 101.195 95.8689L 58.1932 121.809C 53.5824 124.504 49.3599 122.772 47.7582 121.809L 4.75647 95.8689C 1.79578 94.0882 0 90.9599 0 87.5429L 0 35.7102C 0 32.3413 1.79578 29.1649 4.75647 27.3842L 47.7582 1.44381C 50.9615 -0.48127 54.9899 -0.48127 58.1932 1.44381L 101.244 27.3842ZM 98.0577 29.5758C 100.823 31.2389 102.5 34.1606 102.5 37.352L 102.5 85.7618C 102.5 88.9531 100.823 91.9198 98.0123 93.5379L 57.8503 117.765C 53.5439 120.282 49.6003 118.664 48.1044 117.765L 7.94226 93.5379C 5.17725 91.8748 3.5 88.9531 3.5 85.7618L 3.5 37.352C 3.5 34.2056 5.17725 31.2389 7.94226 29.5758L 48.1044 5.34846C 51.0961 3.55051 54.8585 3.55051 57.8503 5.34846L 98.0577 29.5758Z"/>
<path id="path3_fill" fill-rule="evenodd" d="M 101.244 27.3842C 104.204 29.1649 106 32.2932 106 35.7102L 106 87.5429C 106 90.9599 104.204 94.1363 101.195 95.8689L 58.1932 121.809C 53.5824 124.504 49.3599 122.772 47.7582 121.809L 4.75641 95.8689C 1.79578 94.0882 0 90.9599 0 87.5429L 0 35.7102C 0 32.3413 1.79578 29.1649 4.75641 27.3842L 47.7582 1.44381C 50.9615 -0.48127 54.9899 -0.48127 58.1932 1.44381L 101.244 27.3842ZM 98.0577 29.5758C 100.823 31.2389 102.5 34.1606 102.5 37.352L 102.5 85.7618C 102.5 88.9531 100.823 91.9198 98.0123 93.5379L 57.8503 117.765C 53.5439 120.282 49.6003 118.664 48.1044 117.765L 7.94232 93.5379C 5.17719 91.8748 3.5 88.9531 3.5 85.7618L 3.5 37.352C 3.5 34.2056 5.17719 31.2389 7.94232 29.5758L 48.1044 5.34846C 51.0961 3.55051 54.8585 3.55051 57.8503 5.34846L 98.0577 29.5758Z"/>
<path id="path4_fill" fill-rule="evenodd" d="M 101.244 27.3842C 104.204 29.1649 106 32.2932 106 35.7102L 106 87.5429C 106 90.9599 104.204 94.1363 101.195 95.8689L 58.1932 121.809C 53.5824 124.504 49.3599 122.772 47.7583 121.809L 4.75647 95.8689C 1.79578 94.0882 0 90.9599 0 87.5429L 0 35.7102C 0 32.3413 1.79578 29.1649 4.75647 27.3842L 47.7583 1.44381C 50.9615 -0.48127 54.9899 -0.48127 58.1932 1.44381L 101.244 27.3842ZM 98.0577 29.5758C 100.823 31.2389 102.5 34.1606 102.5 37.352L 102.5 85.7618C 102.5 88.9531 100.823 91.9198 98.0123 93.5379L 57.8502 117.765C 53.5439 120.282 49.6002 118.664 48.1044 117.765L 7.94226 93.5379C 5.17725 91.8748 3.5 88.9531 3.5 85.7618L 3.5 37.352C 3.5 34.2056 5.17725 31.2389 7.94226 29.5758L 48.1044 5.34846C 51.0962 3.55051 54.8585 3.55051 57.8502 5.34846L 98.0577 29.5758Z"/>
<path id="path5_fill" fill-rule="evenodd" d="M 101.244 27.3842C 104.204 29.1649 106 32.2932 106 35.7102L 106 87.5429C 106 90.9599 104.204 94.1363 101.195 95.8689L 58.1931 121.809C 53.5825 124.504 49.3599 122.772 47.7583 121.809L 4.75635 95.8689C 1.7959 94.0882 0 90.9599 0 87.5429L 0 35.7102C 0 32.3413 1.7959 29.1649 4.75635 27.3842L 47.7583 1.44381C 50.9614 -0.48127 54.99 -0.48127 58.1931 1.44381L 101.244 27.3842ZM 98.0577 29.5758C 100.823 31.2389 102.5 34.1606 102.5 37.352L 102.5 85.7618C 102.5 88.9531 100.823 91.9198 98.0123 93.5379L 57.8503 117.765C 53.5439 120.282 49.6003 118.664 48.1045 117.765L 7.94238 93.5379C 5.17725 91.8748 3.5 88.9531 3.5 85.7618L 3.5 37.352C 3.5 34.2056 5.17725 31.2389 7.94238 29.5758L 48.1045 5.34846C 51.0962 3.55051 54.8584 3.55051 57.8503 5.34846L 98.0577 29.5758Z"/>
<path id="path6_fill" fill-rule="evenodd" d="M 101.244 27.3842C 104.204 29.1649 106 32.2932 106 35.7102L 106 87.5429C 106 90.9599 104.204 94.1363 101.195 95.8689L 58.1932 121.809C 53.5824 124.504 49.3599 122.772 47.7583 121.809L 4.75647 95.8689C 1.79578 94.0882 0 90.9599 0 87.5429L 0 35.7102C 0 32.3413 1.79578 29.1649 4.75647 27.3842L 47.7583 1.44381C 50.9615 -0.48127 54.9899 -0.48127 58.1932 1.44381L 101.244 27.3842ZM 98.0577 29.5758C 100.823 31.2389 102.5 34.1606 102.5 37.352L 102.5 85.7618C 102.5 88.9531 100.823 91.9198 98.0123 93.5379L 57.8502 117.765C 53.5439 120.282 49.6002 118.664 48.1044 117.765L 7.94226 93.5379C 5.17725 91.8748 3.5 88.9531 3.5 85.7618L 3.5 37.352C 3.5 34.2056 5.17725 31.2389 7.94226 29.5758L 48.1044 5.34846C 51.0962 3.55051 54.8585 3.55051 57.8502 5.34846L 98.0577 29.5758Z"/>
<path id="path7_fill" fill-rule="evenodd" d="M 101.244 27.3842C 104.204 29.1649 106 32.2932 106 35.7102L 106 87.5429C 106 90.9599 104.204 94.1363 101.195 95.8689L 58.1932 121.809C 53.5824 124.504 49.3599 122.772 47.7582 121.809L 4.75641 95.8689C 1.79578 94.0882 0 90.9599 0 87.5429L 0 35.7102C 0 32.3413 1.79578 29.1649 4.75641 27.3842L 47.7582 1.44381C 50.9615 -0.48127 54.9899 -0.48127 58.1932 1.44381L 101.244 27.3842ZM 98.0577 29.5758C 100.823 31.2389 102.5 34.1606 102.5 37.352L 102.5 85.7618C 102.5 88.9531 100.823 91.9198 98.0123 93.5379L 57.8503 117.765C 53.5439 120.282 49.6003 118.664 48.1044 117.765L 7.94232 93.5379C 5.17719 91.8748 3.5 88.9531 3.5 85.7618L 3.5 37.352C 3.5 34.2056 5.17719 31.2389 7.94232 29.5758L 48.1044 5.34846C 51.0961 3.55051 54.8585 3.55051 57.8503 5.34846L 98.0577 29.5758Z"/>
<path id="path8_fill" fill-rule="evenodd" d="M 101.244 27.3842C 104.204 29.1649 106 32.2932 106 35.7102L 106 87.5429C 106 90.9599 104.204 94.1363 101.195 95.8689L 58.1932 121.809C 53.5824 124.504 49.3599 122.772 47.7583 121.809L 4.75647 95.8689C 1.79578 94.0882 0 90.9599 0 87.5429L 0 35.7102C 0 32.3413 1.79578 29.1649 4.75647 27.3842L 47.7583 1.4438C 50.9615 -0.481262 54.9899 -0.481262 58.1932 1.4438L 101.244 27.3842ZM 98.0577 29.5758C 100.823 31.2389 102.5 34.1606 102.5 37.352L 102.5 85.7618C 102.5 88.9531 100.823 91.9198 98.0123 93.5379L 57.8502 117.765C 53.5439 120.282 49.6002 118.664 48.1044 117.765L 7.94226 93.5379C 5.17725 91.8748 3.5 88.9531 3.5 85.7618L 3.5 37.352C 3.5 34.2056 5.17725 31.2389 7.94226 29.5758L 48.1044 5.34846C 51.0962 3.55051 54.8585 3.55051 57.8502 5.34846L 98.0577 29.5758Z"/>
<path id="path9_fill" fill-rule="evenodd" d="M 101.244 27.3842C 104.204 29.1649 106 32.2932 106 35.7102L 106 87.5429C 106 90.9599 104.204 94.1363 101.195 95.8689L 58.1931 121.809C 53.5825 124.504 49.3599 122.772 47.7583 121.809L 4.75635 95.8689C 1.7959 94.0882 0 90.9599 0 87.5429L 0 35.7102C 0 32.3413 1.7959 29.1649 4.75635 27.3842L 47.7583 1.4438C 50.9614 -0.481262 54.99 -0.481262 58.1931 1.4438L 101.244 27.3842ZM 98.0577 29.5758C 100.823 31.2389 102.5 34.1606 102.5 37.352L 102.5 85.7618C 102.5 88.9531 100.823 91.9198 98.0123 93.5379L 57.8503 117.765C 53.5439 120.282 49.6003 118.664 48.1045 117.765L 7.94238 93.5379C 5.17725 91.8748 3.5 88.9531 3.5 85.7618L 3.5 37.352C 3.5 34.2056 5.17725 31.2389 7.94238 29.5758L 48.1045 5.34846C 51.0962 3.55051 54.8584 3.55051 57.8503 5.34846L 98.0577 29.5758Z"/>
<path id="path10_fill" fill-rule="evenodd" d="M 101.244 27.3842C 104.204 29.1649 106 32.2932 106 35.7102L 106 87.5429C 106 90.9599 104.204 94.1363 101.195 95.8689L 58.1932 121.809C 53.5824 124.504 49.3599 122.772 47.7583 121.809L 4.75647 95.8689C 1.79578 94.0882 0 90.9599 0 87.5429L 0 35.7102C 0 32.3413 1.79578 29.1649 4.75647 27.3842L 47.7583 1.4438C 50.9615 -0.481262 54.9899 -0.481262 58.1932 1.4438L 101.244 27.3842ZM 98.0577 29.5758C 100.823 31.2389 102.5 34.1606 102.5 37.352L 102.5 85.7618C 102.5 88.9531 100.823 91.9198 98.0123 93.5379L 57.8502 117.765C 53.5439 120.282 49.6002 118.664 48.1044 117.765L 7.94226 93.5379C 5.17725 91.8748 3.5 88.9531 3.5 85.7618L 3.5 37.352C 3.5 34.2056 5.17725 31.2389 7.94226 29.5758L 48.1044 5.34846C 51.0962 3.55051 54.8585 3.55051 57.8502 5.34846L 98.0577 29.5758Z"/>
<path id="path11_fill" fill-rule="evenodd" d="M 101.244 27.3842C 104.204 29.1649 106 32.2932 106 35.7102L 106 87.5429C 106 90.9599 104.204 94.1363 101.195 95.8689L 58.1932 121.809C 53.5824 124.504 49.3599 122.772 47.7582 121.809L 4.75641 95.8689C 1.79578 94.0882 0 90.9599 0 87.5429L 0 35.7102C 0 32.3413 1.79578 29.1649 4.75641 27.3842L 47.7582 1.4438C 50.9615 -0.481262 54.9899 -0.481262 58.1932 1.4438L 101.244 27.3842ZM 98.0577 29.5758C 100.823 31.2389 102.5 34.1606 102.5 37.352L 102.5 85.7618C 102.5 88.9531 100.823 91.9198 98.0123 93.5379L 57.8503 117.765C 53.5439 120.282 49.6003 118.664 48.1044 117.765L 7.94232 93.5379C 5.17719 91.8748 3.5 88.9531 3.5 85.7618L 3.5 37.352C 3.5 34.2056 5.17719 31.2389 7.94232 29.5758L 48.1044 5.34846C 51.0961 3.55051 54.8585 3.55051 57.8503 5.34846L 98.0577 29.5758Z"/>
<path id="path12_fill" fill-rule="evenodd" d="M 101.244 27.3842C 104.204 29.1649 106 32.2932 106 35.7102L 106 87.5429C 106 90.9599 104.204 94.1363 101.195 95.8689L 58.1932 121.809C 53.5824 124.504 49.3599 122.772 47.7583 121.809L 4.75635 95.8689C 1.7959 94.0882 0 90.9599 0 87.5429L 0 35.7102C 0 32.3413 1.7959 29.1649 4.75635 27.3842L 47.7583 1.44381C 50.9615 -0.48127 54.9899 -0.48127 58.1932 1.44381L 101.244 27.3842ZM 98.0577 29.5758C 100.823 31.2389 102.5 34.1606 102.5 37.352L 102.5 85.7618C 102.5 88.9531 100.823 91.9198 98.0123 93.5379L 57.8502 117.765C 53.5439 120.282 49.6002 118.664 48.1044 117.765L 7.94238 93.5379C 5.17725 91.8748 3.5 88.9531 3.5 85.7618L 3.5 37.352C 3.5 34.2056 5.17725 31.2389 7.94238 29.5758L 48.1044 5.34846C 51.0962 3.55051 54.8585 3.55051 57.8502 5.34846L 98.0577 29.5758Z"/>
<path id="path13_fill" fill-rule="evenodd" d="M 101.244 27.3842C 104.204 29.1649 106 32.2932 106 35.7102L 106 87.5429C 106 90.9599 104.204 94.1363 101.195 95.8689L 58.1932 121.809C 53.5824 124.504 49.3599 122.772 47.7583 121.809L 4.75647 95.8689C 1.79578 94.0882 0 90.9599 0 87.5429L 0 35.7102C 0 32.3413 1.79578 29.1649 4.75647 27.3842L 47.7583 1.44381C 50.9615 -0.48127 54.9899 -0.48127 58.1932 1.44381L 101.244 27.3842ZM 98.0577 29.5758C 100.823 31.2389 102.5 34.1606 102.5 37.352L 102.5 85.7618C 102.5 88.9531 100.823 91.9198 98.0123 93.5379L 57.8502 117.765C 53.5439 120.282 49.6002 118.664 48.1044 117.765L 7.94226 93.5379C 5.17725 91.8748 3.5 88.9531 3.5 85.7618L 3.5 37.352C 3.5 34.2056 5.17725 31.2389 7.94226 29.5758L 48.1044 5.34846C 51.0962 3.55051 54.8585 3.55051 57.8502 5.34846L 98.0577 29.5758Z"/>
<path id="path14_fill" fill-rule="evenodd" d="M 101.244 27.3842C 104.204 29.1649 106 32.2932 106 35.7102L 106 87.5429C 106 90.9599 104.204 94.1363 101.195 95.8689L 58.1932 121.809C 53.5824 124.504 49.3599 122.772 47.7582 121.809L 4.75647 95.8689C 1.79578 94.0882 0 90.9599 0 87.5429L 0 35.7102C 0 32.3413 1.79578 29.1649 4.75647 27.3842L 47.7582 1.44381C 50.9615 -0.48127 54.9899 -0.48127 58.1932 1.44381L 101.244 27.3842ZM 98.0577 29.5758C 100.823 31.2389 102.5 34.1606 102.5 37.352L 102.5 85.7618C 102.5 88.9531 100.823 91.9198 98.0123 93.5379L 57.8503 117.765C 53.5439 120.282 49.6003 118.664 48.1044 117.765L 7.94226 93.5379C 5.17725 91.8748 3.5 88.9531 3.5 85.7618L 3.5 37.352C 3.5 34.2056 5.17725 31.2389 7.94226 29.5758L 48.1044 5.34846C 51.0961 3.55051 54.8585 3.55051 57.8503 5.34846L 98.0577 29.5758Z"/>
<path id="path15_fill" fill-rule="evenodd" d="M 101.244 27.3842C 104.204 29.1649 106 32.2932 106 35.7102L 106 87.5429C 106 90.9599 104.204 94.1363 101.195 95.8689L 58.1932 121.809C 53.5824 124.504 49.3599 122.772 47.7582 121.809L 4.75641 95.8689C 1.79578 94.0882 0 90.9599 0 87.5429L 0 35.7102C 0 32.3413 1.79578 29.1649 4.75641 27.3842L 47.7582 1.44381C 50.9615 -0.48127 54.9899 -0.48127 58.1932 1.44381L 101.244 27.3842ZM 98.0577 29.5758C 100.823 31.2389 102.5 34.1606 102.5 37.352L 102.5 85.7618C 102.5 88.9531 100.823 91.9198 98.0123 93.5379L 57.8503 117.765C 53.5439 120.282 49.6003 118.664 48.1044 117.765L 7.94232 93.5379C 5.17719 91.8748 3.5 88.9531 3.5 85.7618L 3.5 37.352C 3.5 34.2056 5.17719 31.2389 7.94232 29.5758L 48.1044 5.34846C 51.0961 3.55051 54.8585 3.55051 57.8503 5.34846L 98.0577 29.5758Z"/>
<path id="path16_fill" fill-rule="evenodd" d="M 101.244 27.3842C 104.204 29.1649 106 32.2932 106 35.7102L 106 87.5429C 106 90.9599 104.204 94.1363 101.195 95.8689L 58.1932 121.809C 53.5824 124.504 49.3599 122.772 47.7583 121.809L 4.75647 95.8689C 1.79578 94.0882 0 90.9599 0 87.5429L 0 35.7102C 0 32.3413 1.79578 29.1649 4.75647 27.3842L 47.7583 1.4438C 50.9615 -0.481262 54.9899 -0.481262 58.1932 1.4438L 101.244 27.3842ZM 98.0577 29.5758C 100.823 31.2389 102.5 34.1606 102.5 37.352L 102.5 85.7618C 102.5 88.9531 100.823 91.9198 98.0123 93.5379L 57.8502 117.765C 53.5439 120.282 49.6002 118.664 48.1044 117.765L 7.94226 93.5379C 5.17725 91.8748 3.5 88.9531 3.5 85.7618L 3.5 37.352C 3.5 34.2056 5.17725 31.2389 7.94226 29.5758L 48.1044 5.34846C 51.0962 3.55051 54.8585 3.55051 57.8502 5.34846L 98.0577 29.5758Z"/>
<path id="path17_fill" fill-rule="evenodd" d="M 101.244 27.3842C 104.204 29.1649 106 32.2932 106 35.7102L 106 87.5429C 106 90.9599 104.204 94.1363 101.195 95.8689L 58.1931 121.809C 53.5825 124.504 49.3599 122.772 47.7583 121.809L 4.75635 95.8689C 1.7959 94.0882 0 90.9599 0 87.5429L 0 35.7102C 0 32.3413 1.7959 29.1649 4.75635 27.3842L 47.7583 1.4438C 50.9614 -0.481262 54.99 -0.481262 58.1931 1.4438L 101.244 27.3842ZM 98.0577 29.5758C 100.823 31.2389 102.5 34.1606 102.5 37.352L 102.5 85.7618C 102.5 88.9531 100.823 91.9198 98.0123 93.5379L 57.8503 117.765C 53.5439 120.282 49.6003 118.664 48.1045 117.765L 7.94238 93.5379C 5.17725 91.8748 3.5 88.9531 3.5 85.7618L 3.5 37.352C 3.5 34.2056 5.17725 31.2389 7.94238 29.5758L 48.1045 5.34846C 51.0962 3.55051 54.8584 3.55051 57.8503 5.34846L 98.0577 29.5758Z"/>
<path id="path18_fill" fill-rule="evenodd" d="M 101.244 27.3842C 104.204 29.1649 106 32.2932 106 35.7102L 106 87.5429C 106 90.9599 104.204 94.1363 101.195 95.8689L 58.1932 121.809C 53.5824 124.504 49.3599 122.772 47.7583 121.809L 4.75647 95.8689C 1.79578 94.0882 0 90.9599 0 87.5429L 0 35.7102C 0 32.3413 1.79578 29.1649 4.75647 27.3842L 47.7583 1.4438C 50.9615 -0.481262 54.9899 -0.481262 58.1932 1.4438L 101.244 27.3842ZM 98.0577 29.5758C 100.823 31.2389 102.5 34.1606 102.5 37.352L 102.5 85.7618C 102.5 88.9531 100.823 91.9198 98.0123 93.5379L 57.8502 117.765C 53.5439 120.282 49.6002 118.664 48.1044 117.765L 7.94226 93.5379C 5.17725 91.8748 3.5 88.9531 3.5 85.7618L 3.5 37.352C 3.5 34.2056 5.17725 31.2389 7.94226 29.5758L 48.1044 5.34846C 51.0962 3.55051 54.8585 3.55051 57.8502 5.34846L 98.0577 29.5758Z"/>
<path id="path19_fill" fill-rule="evenodd" d="M 101.244 27.3842C 104.204 29.1649 106 32.2932 106 35.7102L 106 87.5429C 106 90.9599 104.204 94.1363 101.195 95.8689L 58.1932 121.809C 53.5824 124.504 49.3599 122.772 47.7582 121.809L 4.75641 95.8689C 1.79578 94.0882 0 90.9599 0 87.5429L 0 35.7102C 0 32.3413 1.79578 29.1649 4.75641 27.3842L 47.7582 1.4438C 50.9615 -0.481262 54.9899 -0.481262 58.1932 1.4438L 101.244 27.3842ZM 98.0577 29.5758C 100.823 31.2389 102.5 34.1606 102.5 37.352L 102.5 85.7618C 102.5 88.9531 100.823 91.9198 98.0123 93.5379L 57.8503 117.765C 53.5439 120.282 49.6003 118.664 48.1044 117.765L 7.94232 93.5379C 5.17719 91.8748 3.5 88.9531 3.5 85.7618L 3.5 37.352C 3.5 34.2056 5.17719 31.2389 7.94232 29.5758L 48.1044 5.34846C 51.0961 3.55051 54.8585 3.55051 57.8503 5.34846L 98.0577 29.5758Z"/>
<path id="path20_fill" fill-rule="evenodd" d="M 101.244 27.3842C 104.204 29.1649 106 32.2932 106 35.7102L 106 87.5429C 106 90.9599 104.204 94.1363 101.195 95.8689L 58.1932 121.809C 53.5824 124.504 49.3599 122.772 47.7583 121.809L 4.75635 95.8689C 1.7959 94.0882 0 90.9599 0 87.5429L 0 35.7102C 0 32.3413 1.7959 29.1649 4.75635 27.3842L 47.7583 1.44382C 50.9615 -0.481262 54.9899 -0.481262 58.1932 1.44382L 101.244 27.3842ZM 98.0577 29.5758C 100.823 31.239 102.5 34.1606 102.5 37.352L 102.5 85.7618C 102.5 88.9531 100.823 91.9198 98.0123 93.5379L 57.8502 117.765C 53.5439 120.282 49.6002 118.664 48.1044 117.765L 7.94238 93.5379C 5.17725 91.8748 3.5 88.9531 3.5 85.7618L 3.5 37.352C 3.5 34.2056 5.17725 31.239 7.94238 29.5758L 48.1044 5.34845C 51.0962 3.55051 54.8585 3.55051 57.8502 5.34845L 98.0577 29.5758Z"/>
<path id="path21_fill" fill-rule="evenodd" d="M 101.244 27.3842C 104.204 29.1649 106 32.2932 106 35.7102L 106 87.5429C 106 90.9599 104.204 94.1363 101.195 95.8689L 58.1932 121.809C 53.5824 124.504 49.3599 122.772 47.7583 121.809L 4.75647 95.8689C 1.79578 94.0882 0 90.9599 0 87.5429L 0 35.7102C 0 32.3413 1.79578 29.1649 4.75647 27.3842L 47.7583 1.44382C 50.9615 -0.481262 54.9899 -0.481262 58.1932 1.44382L 101.244 27.3842ZM 98.0577 29.5758C 100.823 31.239 102.5 34.1606 102.5 37.352L 102.5 85.7618C 102.5 88.9531 100.823 91.9198 98.0123 93.5379L 57.8502 117.765C 53.5439 120.282 49.6002 118.664 48.1044 117.765L 7.94226 93.5379C 5.17725 91.8748 3.5 88.9531 3.5 85.7618L 3.5 37.352C 3.5 34.2056 5.17725 31.239 7.94226 29.5758L 48.1044 5.34845C 51.0962 3.55051 54.8585 3.55051 57.8502 5.34845L 98.0577 29.5758Z"/>
<path id="path22_fill" fill-rule="evenodd" d="M 101.244 27.3842C 104.204 29.1649 106 32.2932 106 35.7102L 106 87.5429C 106 90.9599 104.204 94.1363 101.195 95.8689L 58.1932 121.809C 53.5824 124.504 49.3599 122.772 47.7582 121.809L 4.75647 95.8689C 1.79578 94.0882 0 90.9599 0 87.5429L 0 35.7102C 0 32.3413 1.79578 29.1649 4.75647 27.3842L 47.7582 1.44382C 50.9615 -0.481262 54.9899 -0.481262 58.1932 1.44382L 101.244 27.3842ZM 98.0577 29.5758C 100.823 31.239 102.5 34.1606 102.5 37.352L 102.5 85.7618C 102.5 88.9531 100.823 91.9198 98.0123 93.5379L 57.8503 117.765C 53.5439 120.282 49.6003 118.664 48.1044 117.765L 7.94226 93.5379C 5.17725 91.8748 3.5 88.9531 3.5 85.7618L 3.5 37.352C 3.5 34.2056 5.17725 31.239 7.94226 29.5758L 48.1044 5.34845C 51.0961 3.55051 54.8585 3.55051 57.8503 5.34845L 98.0577 29.5758Z"/>
<path id="path23_fill" fill-rule="evenodd" d="M 101.244 27.3842C 104.204 29.1649 106 32.2932 106 35.7102L 106 87.5429C 106 90.9599 104.204 94.1363 101.195 95.8689L 58.1932 121.809C 53.5824 124.504 49.3599 122.772 47.7582 121.809L 4.75641 95.8689C 1.79578 94.0882 0 90.9599 0 87.5429L 0 35.7102C 0 32.3413 1.79578 29.1649 4.75641 27.3842L 47.7582 1.44382C 50.9615 -0.481262 54.9899 -0.481262 58.1932 1.44382L 101.244 27.3842ZM 98.0577 29.5758C 100.823 31.239 102.5 34.1606 102.5 37.352L 102.5 85.7618C 102.5 88.9531 100.823 91.9198 98.0123 93.5379L 57.8503 117.765C 53.5439 120.282 49.6003 118.664 48.1044 117.765L 7.94232 93.5379C 5.17719 91.8748 3.5 88.9531 3.5 85.7618L 3.5 37.352C 3.5 34.2056 5.17719 31.239 7.94232 29.5758L 48.1044 5.34845C 51.0961 3.55051 54.8585 3.55051 57.8503 5.34845L 98.0577 29.5758Z"/>
<path id="path24_fill" fill-rule="evenodd" d="M 101.244 27.3842C 104.204 29.1649 106 32.2932 106 35.7102L 106 87.5429C 106 90.9599 104.204 94.1363 101.195 95.8689L 58.1931 121.809C 53.5825 124.504 49.3599 122.772 47.7583 121.809L 4.75635 95.8689C 1.7959 94.0882 0 90.9599 0 87.5429L 0 35.7102C 0 32.3413 1.7959 29.1649 4.75635 27.3842L 47.7583 1.44382C 50.9614 -0.481262 54.99 -0.481262 58.1931 1.44382L 101.244 27.3842ZM 98.0577 29.5758C 100.823 31.239 102.5 34.1606 102.5 37.352L 102.5 85.7618C 102.5 88.9531 100.823 91.9198 98.0123 93.5379L 57.8503 117.765C 53.5439 120.282 49.6003 118.664 48.1045 117.765L 7.94238 93.5379C 5.17725 91.8748 3.5 88.9531 3.5 85.7618L 3.5 37.352C 3.5 34.2056 5.17725 31.239 7.94238 29.5758L 48.1045 5.34845C 51.0962 3.55051 54.8584 3.55051 57.8503 5.34845L 98.0577 29.5758Z"/>
<path id="path25_fill" fill-rule="evenodd" d="M 101.244 27.3842C 104.204 29.1649 106 32.2932 106 35.7102L 106 87.5429C 106 90.9599 104.204 94.1363 101.195 95.8689L 58.1932 121.809C 53.5824 124.504 49.3599 122.772 47.7583 121.809L 4.75647 95.8689C 1.79578 94.0882 0 90.9599 0 87.5429L 0 35.7102C 0 32.3413 1.79578 29.1649 4.75647 27.3842L 47.7583 1.44382C 50.9615 -0.481262 54.9899 -0.481262 58.1932 1.44382L 101.244 27.3842ZM 98.0577 29.5758C 100.823 31.239 102.5 34.1606 102.5 37.352L 102.5 85.7618C 102.5 88.9531 100.823 91.9198 98.0123 93.5379L 57.8502 117.765C 53.5439 120.282 49.6002 118.664 48.1044 117.765L 7.94226 93.5379C 5.17725 91.8748 3.5 88.9531 3.5 85.7618L 3.5 37.352C 3.5 34.2056 5.17725 31.239 7.94226 29.5758L 48.1044 5.34845C 51.0962 3.55051 54.8585 3.55051 57.8502 5.34845L 98.0577 29.5758Z"/>
<path id="path26_fill" fill-rule="evenodd" d="M 101.244 27.3842C 104.204 29.1649 106 32.2932 106 35.7102L 106 87.5429C 106 90.9599 104.204 94.1363 101.195 95.8689L 58.1932 121.809C 53.5824 124.504 49.3599 122.772 47.7583 121.809L 4.75635 95.8689C 1.7959 94.0882 0 90.9599 0 87.5429L 0 35.7102C 0 32.3413 1.7959 29.1649 4.75635 27.3842L 47.7583 1.44382C 50.9615 -0.481262 54.9899 -0.481262 58.1932 1.44382L 101.244 27.3842ZM 98.0577 29.5758C 100.823 31.239 102.5 34.1606 102.5 37.352L 102.5 85.7618C 102.5 88.9531 100.823 91.9197 98.0123 93.5379L 57.8502 117.765C 53.5439 120.282 49.6002 118.664 48.1044 117.765L 7.94238 93.5379C 5.17725 91.8748 3.5 88.9531 3.5 85.7618L 3.5 37.352C 3.5 34.2056 5.17725 31.239 7.94238 29.5758L 48.1044 5.34845C 51.0962 3.55051 54.8585 3.55051 57.8502 5.34845L 98.0577 29.5758Z"/>
<path id="path27_fill" fill-rule="evenodd" d="M 101.244 27.3842C 104.204 29.1649 106 32.2932 106 35.7102L 106 87.5429C 106 90.9599 104.204 94.1363 101.195 95.8689L 58.1932 121.809C 53.5824 124.504 49.3599 122.772 47.7583 121.809L 4.75647 95.8689C 1.79578 94.0882 0 90.9599 0 87.5429L 0 35.7102C 0 32.3413 1.79578 29.1649 4.75647 27.3842L 47.7583 1.44382C 50.9615 -0.481262 54.9899 -0.481262 58.1932 1.44382L 101.244 27.3842ZM 98.0577 29.5758C 100.823 31.239 102.5 34.1606 102.5 37.352L 102.5 85.7618C 102.5 88.9531 100.823 91.9197 98.0123 93.5379L 57.8502 117.765C 53.5439 120.282 49.6002 118.664 48.1044 117.765L 7.94226 93.5379C 5.17725 91.8748 3.5 88.9531 3.5 85.7618L 3.5 37.352C 3.5 34.2056 5.17725 31.239 7.94226 29.5758L 48.1044 5.34845C 51.0962 3.55051 54.8585 3.55051 57.8502 5.34845L 98.0577 29.5758Z"/>
<path id="path28_fill" fill-rule="evenodd" d="M 101.244 27.3842C 104.204 29.1649 106 32.2932 106 35.7102L 106 87.5429C 106 90.9599 104.204 94.1363 101.195 95.8689L 58.1932 121.809C 53.5824 124.504 49.3599 122.772 47.7582 121.809L 4.75647 95.8689C 1.79578 94.0882 0 90.9599 0 87.5429L 0 35.7102C 0 32.3413 1.79578 29.1649 4.75647 27.3842L 47.7582 1.44382C 50.9615 -0.481262 54.9899 -0.481262 58.1932 1.44382L 101.244 27.3842ZM 98.0577 29.5758C 100.823 31.239 102.5 34.1606 102.5 37.352L 102.5 85.7618C 102.5 88.9531 100.823 91.9197 98.0123 93.5379L 57.8503 117.765C 53.5439 120.282 49.6003 118.664 48.1044 117.765L 7.94226 93.5379C 5.17725 91.8748 3.5 88.9531 3.5 85.7618L 3.5 37.352C 3.5 34.2056 5.17725 31.239 7.94226 29.5758L 48.1044 5.34845C 51.0961 3.55051 54.8585 3.55051 57.8503 5.34845L 98.0577 29.5758Z"/>
<path id="path29_fill" fill-rule="evenodd" d="M 101.244 27.3842C 104.204 29.1649 106 32.2932 106 35.7102L 106 87.5429C 106 90.9599 104.204 94.1363 101.195 95.8689L 58.1932 121.809C 53.5824 124.504 49.3599 122.772 47.7582 121.809L 4.75641 95.8689C 1.79578 94.0882 0 90.9599 0 87.5429L 0 35.7102C 0 32.3413 1.79578 29.1649 4.75641 27.3842L 47.7582 1.44382C 50.9615 -0.481262 54.9899 -0.481262 58.1932 1.44382L 101.244 27.3842ZM 98.0577 29.5758C 100.823 31.239 102.5 34.1606 102.5 37.352L 102.5 85.7618C 102.5 88.9531 100.823 91.9197 98.0123 93.5379L 57.8503 117.765C 53.5439 120.282 49.6003 118.664 48.1044 117.765L 7.94232 93.5379C 5.17719 91.8748 3.5 88.9531 3.5 85.7618L 3.5 37.352C 3.5 34.2056 5.17719 31.239 7.94232 29.5758L 48.1044 5.34845C 51.0961 3.55051 54.8585 3.55051 57.8503 5.34845L 98.0577 29.5758Z"/>
<path id="path30_fill" fill-rule="evenodd" d="M 101.244 27.3842C 104.204 29.1649 106 32.2932 106 35.7102L 106 87.5429C 106 90.9599 104.204 94.1363 101.195 95.8689L 58.1932 121.809C 53.5824 124.504 49.3599 122.772 47.7583 121.809L 4.75647 95.8689C 1.79578 94.0882 0 90.9599 0 87.5429L 0 35.7102C 0 32.3413 1.79578 29.1649 4.75647 27.3842L 47.7583 1.44379C 50.9615 -0.481262 54.9899 -0.481262 58.1932 1.44379L 101.244 27.3842ZM 98.0577 29.5759C 100.823 31.239 102.5 34.1606 102.5 37.352L 102.5 85.7618C 102.5 88.9531 100.823 91.9197 98.0123 93.5379L 57.8502 117.765C 53.5439 120.282 49.6002 118.664 48.1044 117.765L 7.94226 93.5379C 5.17725 91.8748 3.5 88.9531 3.5 85.7618L 3.5 37.352C 3.5 34.2056 5.17725 31.239 7.94226 29.5759L 48.1044 5.34845C 51.0962 3.55054 54.8585 3.55054 57.8502 5.34845L 98.0577 29.5759Z"/>
<path id="path31_fill" fill-rule="evenodd" d="M 101.244 27.3842C 104.204 29.1649 106 32.2932 106 35.7102L 106 87.5429C 106 90.9599 104.204 94.1363 101.195 95.8689L 58.1931 121.809C 53.5825 124.504 49.3599 122.772 47.7583 121.809L 4.75635 95.8689C 1.7959 94.0882 0 90.9599 0 87.5429L 0 35.7102C 0 32.3413 1.7959 29.1649 4.75635 27.3842L 47.7583 1.44379C 50.9614 -0.481262 54.99 -0.481262 58.1931 1.44379L 101.244 27.3842ZM 98.0577 29.5759C 100.823 31.239 102.5 34.1606 102.5 37.352L 102.5 85.7618C 102.5 88.9531 100.823 91.9197 98.0123 93.5379L 57.8503 117.765C 53.5439 120.282 49.6003 118.664 48.1045 117.765L 7.94238 93.5379C 5.17725 91.8748 3.5 88.9531 3.5 85.7618L 3.5 37.352C 3.5 34.2056 5.17725 31.239 7.94238 29.5759L 48.1045 5.34845C 51.0962 3.55054 54.8584 3.55054 57.8503 5.34845L 98.0577 29.5759Z"/>
<path id="path32_fill" fill-rule="evenodd" d="M 101.244 27.3842C 104.204 29.1649 106 32.2932 106 35.7102L 106 87.5429C 106 90.9599 104.204 94.1363 101.195 95.8689L 58.1932 121.809C 53.5824 124.504 49.3599 122.772 47.7583 121.809L 4.75647 95.8689C 1.79578 94.0882 0 90.9599 0 87.5429L 0 35.7102C 0 32.3413 1.79578 29.1649 4.75647 27.3842L 47.7583 1.44379C 50.9615 -0.481262 54.9899 -0.481262 58.1932 1.44379L 101.244 27.3842ZM 98.0577 29.5759C 100.823 31.239 102.5 34.1606 102.5 37.352L 102.5 85.7618C 102.5 88.9531 100.823 91.9197 98.0123 93.5379L 57.8502 117.765C 53.5439 120.282 49.6002 118.664 48.1044 117.765L 7.94226 93.5379C 5.17725 91.8748 3.5 88.9531 3.5 85.7618L 3.5 37.352C 3.5 34.2056 5.17725 31.239 7.94226 29.5759L 48.1044 5.34845C 51.0962 3.55054 54.8585 3.55054 57.8502 5.34845L 98.0577 29.5759Z"/>
<path id="path33_fill" fill-rule="evenodd" d="M 101.244 27.3842C 104.204 29.1649 106 32.2932 106 35.7102L 106 87.5429C 106 90.9599 104.204 94.1363 101.195 95.8689L 58.1932 121.809C 53.5824 124.504 49.3599 122.772 47.7582 121.809L 4.75641 95.8689C 1.79578 94.0882 0 90.9599 0 87.5429L 0 35.7102C 0 32.3413 1.79578 29.1649 4.75641 27.3842L 47.7582 1.44379C 50.9615 -0.481262 54.9899 -0.481262 58.1932 1.44379L 101.244 27.3842ZM 98.0577 29.5759C 100.823 31.239 102.5 34.1606 102.5 37.352L 102.5 85.7618C 102.5 88.9531 100.823 91.9197 98.0123 93.5379L 57.8503 117.765C 53.5439 120.282 49.6003 118.664 48.1044 117.765L 7.94232 93.5379C 5.17719 91.8748 3.5 88.9531 3.5 85.7618L 3.5 37.352C 3.5 34.2056 5.17719 31.239 7.94232 29.5759L 48.1044 5.34845C 51.0961 3.55054 54.8585 3.55054 57.8503 5.34845L 98.0577 29.5759Z"/>
<path id="path34_fill" fill-rule="evenodd" d="M 101.244 27.3842C 104.204 29.1649 106 32.2932 106 35.7102L 106 87.5429C 106 90.9599 104.204 94.1363 101.195 95.8689L 58.1932 121.809C 53.5824 124.504 49.3599 122.772 47.7583 121.809L 4.75635 95.8689C 1.7959 94.0882 0 90.9599 0 87.5429L 0 35.7102C 0 32.3413 1.7959 29.1649 4.75635 27.3842L 47.7583 1.44379C 50.9615 -0.481262 54.9899 -0.481262 58.1932 1.44379L 101.244 27.3842ZM 98.0577 29.5759C 100.823 31.239 102.5 34.1606 102.5 37.352L 102.5 85.7618C 102.5 88.9531 100.823 91.9197 98.0123 93.5379L 57.8502 117.765C 53.5439 120.282 49.6002 118.664 48.1044 117.765L 7.94238 93.5379C 5.17725 91.8748 3.5 88.9531 3.5 85.7618L 3.5 37.352C 3.5 34.2056 5.17725 31.239 7.94238 29.5759L 48.1044 5.34845C 51.0962 3.55054 54.8585 3.55054 57.8502 5.34845L 98.0577 29.5759Z"/>
<path id="path35_fill" fill-rule="evenodd" d="M 101.244 27.3842C 104.204 29.1649 106 32.2932 106 35.7102L 106 87.5429C 106 90.9599 104.204 94.1363 101.195 95.8689L 58.1932 121.809C 53.5824 124.504 49.3599 122.772 47.7582 121.809L 4.75647 95.8689C 1.79578 94.0882 0 90.9599 0 87.5429L 0 35.7102C 0 32.3413 1.79578 29.1649 4.75647 27.3842L 47.7582 1.44379C 50.9615 -0.481262 54.9899 -0.481262 58.1932 1.44379L 101.244 27.3842ZM 98.0577 29.5759C 100.823 31.239 102.5 34.1606 102.5 37.352L 102.5 85.7618C 102.5 88.9531 100.823 91.9197 98.0123 93.5379L 57.8503 117.765C 53.5439 120.282 49.6003 118.664 48.1044 117.765L 7.94226 93.5379C 5.17725 91.8748 3.5 88.9531 3.5 85.7618L 3.5 37.352C 3.5 34.2056 5.17725 31.239 7.94226 29.5759L 48.1044 5.34845C 51.0961 3.55054 54.8585 3.55054 57.8503 5.34845L 98.0577 29.5759Z"/>
</defs>
</svg>
