<svg width="1440" height="1029" viewBox="0 0 1440 1029" xmlns="http://www.w3.org/2000/svg" xmlns:xlink="http://www.w3.org/1999/xlink"><title>cells</title><desc>Created using Figma</desc><use xlink:href="#a" transform="translate(-29 14)" class="cell"/><use xlink:href="#b" transform="translate(82 14)" class="cell"/><use xlink:href="#b" transform="translate(193 14)" class="cell"/><use xlink:href="#b" transform="translate(304 14)" class="cell"/><use xlink:href="#b" transform="translate(415 14)" class="cell"/><use xlink:href="#b" transform="translate(526 14)" class="cell"/><use xlink:href="#b" transform="translate(637 14)" class="cell"/><use xlink:href="#b" transform="translate(748 14)" class="cell"/><use xlink:href="#b" transform="translate(859 14)" class="cell"/><use xlink:href="#c" transform="translate(970 14)" class="cell"/><use xlink:href="#d" transform="translate(1081 14)" class="cell"/><use xlink:href="#d" transform="translate(1192 14)" class="cell"/><use xlink:href="#d" transform="translate(1303 14)" class="cell"/><use xlink:href="#d" transform="translate(1414 14)" class="cell"/><use xlink:href="#e" transform="translate(27 113)" class="cell"/><use xlink:href="#f" transform="translate(-84 113)" class="cell"/><use xlink:href="#e" transform="translate(138 113)" class="cell"/><use xlink:href="#e" transform="translate(249 113)" class="cell"/><use xlink:href="#e" transform="translate(360 113)" class="cell"/><use xlink:href="#e" transform="translate(471 113)" class="cell"/><use xlink:href="#e" transform="translate(582 113)" class="cell"/><use xlink:href="#e" transform="translate(693 113)" class="cell"/><use xlink:href="#e" transform="translate(804 113)" class="cell"/><use xlink:href="#g" transform="translate(915 113)" class="cell"/><use xlink:href="#h" transform="translate(1026 113)" class="cell"/><use xlink:href="#h" transform="translate(1137 113)" class="cell"/><use xlink:href="#h" transform="translate(1248 113)" class="cell"/><use xlink:href="#h" transform="translate(1359 113)" class="cell"/><use xlink:href="#i" transform="translate(27 -85)" class="cell"/><use xlink:href="#j" transform="translate(-84 -85)" class="cell"/><use xlink:href="#i" transform="translate(138 -85)" class="cell"/><use xlink:href="#i" transform="translate(249 -85)" class="cell"/><use xlink:href="#i" transform="translate(360 -85)" class="cell"/><use xlink:href="#i" transform="translate(471 -85)" class="cell"/><use xlink:href="#i" transform="translate(582 -85)" class="cell"/><use xlink:href="#i" transform="translate(693 -85)" class="cell"/><use xlink:href="#i" transform="translate(804 -85)" class="cell"/><use xlink:href="#k" transform="translate(915 -85)" class="cell"/><use xlink:href="#l" transform="translate(1026 -85)" class="cell"/><use xlink:href="#l" transform="translate(1137 -85)" class="cell"/><use xlink:href="#l" transform="translate(1248 -85)" class="cell"/><use xlink:href="#l" transform="translate(1359 -85)" class="cell"/><use xlink:href="#m" transform="translate(-28 212)" class="cell"/><use xlink:href="#n" transform="translate(83 212)" class="cell"/><use xlink:href="#n" transform="translate(194 212)" class="cell"/><use xlink:href="#n" transform="translate(305 212)" class="cell"/><use xlink:href="#n" transform="translate(416 212)" class="cell"/><use xlink:href="#n" transform="translate(527 212)" class="cell"/><use xlink:href="#n" transform="translate(638 212)" class="cell"/><use xlink:href="#n" transform="translate(749 212)" class="cell"/><use xlink:href="#n" transform="translate(860 212)" class="cell"/><use xlink:href="#o" transform="translate(971 212)" class="cell"/><use xlink:href="#p" transform="translate(1082 212)" class="cell"/><use xlink:href="#p" transform="translate(1193 212)" class="cell"/><use xlink:href="#p" transform="translate(1304 212)" class="cell"/><use xlink:href="#p" transform="translate(1415 212)" class="cell"/><use xlink:href="#q" transform="translate(28 311)" class="cell"/><use xlink:href="#r" transform="translate(-83 311)" class="cell"/><use xlink:href="#q" transform="translate(139 311)" class="cell"/><use xlink:href="#q" transform="translate(250 311)" class="cell"/><use xlink:href="#q" transform="translate(361 311)" class="cell"/><use xlink:href="#q" transform="translate(472 311)" class="cell"/><use xlink:href="#q" transform="translate(583 311)" class="cell"/><use xlink:href="#q" transform="translate(694 311)" class="cell"/><use xlink:href="#q" transform="translate(805 311)" class="cell"/><use xlink:href="#s" transform="translate(916 311)" class="cell"/><use xlink:href="#t" transform="translate(1027 311)" class="cell"/><use xlink:href="#t" transform="translate(1138 311)" class="cell"/><use xlink:href="#t" transform="translate(1249 311)" class="cell"/><use xlink:href="#t" transform="translate(1360 311)" class="cell"/><use xlink:href="#u" transform="translate(-27 410)" class="cell"/><use xlink:href="#v" transform="translate(84 410)" class="cell"/><use xlink:href="#v" transform="translate(195 410)" class="cell"/><use xlink:href="#v" transform="translate(306 410)" class="cell"/><use xlink:href="#v" transform="translate(417 410)" class="cell"/><use xlink:href="#v" transform="translate(528 410)" class="cell"/><use xlink:href="#v" transform="translate(639 410)" class="cell"/><use xlink:href="#v" transform="translate(750 410)" class="cell"/><use xlink:href="#v" transform="translate(861 410)" class="cell"/><use xlink:href="#w" transform="translate(972 410)" class="cell"/><use xlink:href="#x" transform="translate(1083 410)" class="cell"/><use xlink:href="#x" transform="translate(1194 410)" class="cell"/><use xlink:href="#x" transform="translate(1305 410)" class="cell"/><use xlink:href="#x" transform="translate(1416 410)" class="cell"/><use xlink:href="#v" transform="translate(29 509)" class="cell"/><use xlink:href="#y" transform="translate(-82 509)" class="cell"/><use xlink:href="#v" transform="translate(140 509)" class="cell"/><use xlink:href="#v" transform="translate(251 509)" class="cell"/><use xlink:href="#v" transform="translate(362 509)" class="cell"/><use xlink:href="#v" transform="translate(473 509)" class="cell"/><use xlink:href="#v" transform="translate(584 509)" class="cell"/><use xlink:href="#v" transform="translate(695 509)" class="cell"/><use xlink:href="#v" transform="translate(806 509)" class="cell"/><use xlink:href="#z" transform="translate(917 509)" class="cell"/><use xlink:href="#x" transform="translate(1028 509)" class="cell"/><use xlink:href="#x" transform="translate(1139 509)" class="cell"/><use xlink:href="#x" transform="translate(1250 509)" class="cell"/><use xlink:href="#x" transform="translate(1361 509)" class="cell"/><use xlink:href="#A" transform="translate(-26 608)" class="cell"/><use xlink:href="#B" transform="translate(85 608)" class="cell"/><use xlink:href="#B" transform="translate(196 608)" class="cell"/><use xlink:href="#B" transform="translate(307 608)" class="cell"/><use xlink:href="#B" transform="translate(418 608)" class="cell"/><use xlink:href="#B" transform="translate(529 608)" class="cell"/><use xlink:href="#B" transform="translate(640 608)" class="cell"/><use xlink:href="#B" transform="translate(751 608)" class="cell"/><use xlink:href="#B" transform="translate(862 608)" class="cell"/><use xlink:href="#C" transform="translate(973 608)" class="cell"/><use xlink:href="#D" transform="translate(1084 608)" class="cell"/><use xlink:href="#D" transform="translate(1195 608)" class="cell"/><use xlink:href="#D" transform="translate(1306 608)" class="cell"/><use xlink:href="#D" transform="translate(1417 608)" class="cell"/><use xlink:href="#E" transform="translate(30 707)" class="cell"/><use xlink:href="#F" transform="translate(-81 707)" class="cell"/><use xlink:href="#E" transform="translate(141 707)" class="cell"/><use xlink:href="#E" transform="translate(252 707)" class="cell"/><use xlink:href="#E" transform="translate(363 707)" class="cell"/><use xlink:href="#E" transform="translate(474 707)" class="cell"/><use xlink:href="#E" transform="translate(585 707)" class="cell"/><use xlink:href="#E" transform="translate(696 707)" class="cell"/><use xlink:href="#E" transform="translate(807 707)" class="cell"/><use xlink:href="#G" transform="translate(918 707)" class="cell"/><use xlink:href="#H" transform="translate(1029 707)" class="cell"/><use xlink:href="#H" transform="translate(1140 707)" class="cell"/><use xlink:href="#H" transform="translate(1251 707)" class="cell"/><use xlink:href="#H" transform="translate(1362 707)" class="cell"/><use xlink:href="#E" transform="translate(30 904)" class="cell"/><use xlink:href="#F" transform="translate(-81 904)" class="cell"/><use xlink:href="#E" transform="translate(141 904)" class="cell"/><use xlink:href="#E" transform="translate(252 904)" class="cell"/><use xlink:href="#E" transform="translate(363 904)" class="cell"/><use xlink:href="#E" transform="translate(474 904)" class="cell"/><use xlink:href="#E" transform="translate(585 904)" class="cell"/><use xlink:href="#E" transform="translate(696 904)" class="cell"/><use xlink:href="#E" transform="translate(807 904)" class="cell"/><use xlink:href="#G" transform="translate(918 904)" class="cell"/><use xlink:href="#H" transform="translate(1029 904)" class="cell"/><use xlink:href="#H" transform="translate(1140 904)" class="cell"/><use xlink:href="#H" transform="translate(1251 904)" class="cell"/><use xlink:href="#H" transform="translate(1362 904)" class="cell"/><use xlink:href="#I" transform="translate(-26 806)" class="cell"/><use xlink:href="#E" transform="translate(85 806)" class="cell"/><use xlink:href="#E" transform="translate(196 806)" class="cell"/><use xlink:href="#E" transform="translate(307 806)" class="cell"/><use xlink:href="#E" transform="translate(418 806)" class="cell"/><use xlink:href="#E" transform="translate(529 806)" class="cell"/><use xlink:href="#E" transform="translate(640 806)" class="cell"/><use xlink:href="#E" transform="translate(751 806)" class="cell"/><use xlink:href="#E" transform="translate(862 806)" class="cell"/><use xlink:href="#J" transform="translate(973 806)" class="cell"/><use xlink:href="#H" transform="translate(1084 806)" class="cell"/><use xlink:href="#H" transform="translate(1195 806)" class="cell"/><use xlink:href="#H" transform="translate(1306 806)" class="cell"/><use xlink:href="#H" transform="translate(1417 806)" class="cell"/><defs><path id="a" fill-rule="evenodd" d="M101.244 27.384c2.96 1.78 4.756 4.91 4.756 8.326v51.833a9.58 9.58 0 0 1-4.805 8.326l-43.002 25.94c-4.61 2.695-8.833.963-10.435 0L4.756 95.869C1.796 94.089 0 90.959 0 87.543V35.71c0-3.369 1.796-6.545 4.756-8.326l43.002-25.94a10.149 10.149 0 0 1 10.435 0l43.051 25.94zm-3.186 2.192c2.765 1.663 4.442 4.585 4.442 7.776v48.41a8.946 8.946 0 0 1-4.488 7.776L57.85 117.765c-4.306 2.517-8.25.899-9.746 0L7.942 93.538C5.177 91.875 3.5 88.953 3.5 85.762v-48.41c0-3.146 1.677-6.113 4.442-7.776L48.104 5.348a9.479 9.479 0 0 1 9.746 0l40.208 24.228z"/><path id="b" fill-rule="evenodd" d="M101.244 27.384c2.96 1.78 4.756 4.91 4.756 8.326v51.833a9.58 9.58 0 0 1-4.805 8.326l-43.002 25.94c-4.61 2.695-8.833.963-10.435 0L4.756 95.869C1.796 94.089 0 90.959 0 87.543V35.71c0-3.369 1.796-6.545 4.756-8.326l43.002-25.94a10.149 10.149 0 0 1 10.435 0l43.051 25.94zm-3.186 2.192c2.765 1.663 4.442 4.585 4.442 7.776v48.41a8.946 8.946 0 0 1-4.488 7.776L57.85 117.765c-4.306 2.517-8.25.899-9.746 0L7.942 93.538C5.177 91.875 3.5 88.953 3.5 85.762v-48.41c0-3.146 1.677-6.113 4.442-7.776L48.104 5.348a9.479 9.479 0 0 1 9.746 0l40.208 24.228z"/><path id="c" fill-rule="evenodd" d="M101.244 27.384c2.96 1.78 4.756 4.91 4.756 8.326v51.833a9.58 9.58 0 0 1-4.805 8.326l-43.002 25.94c-4.61 2.695-8.833.963-10.435 0L4.756 95.869C1.796 94.089 0 90.959 0 87.543V35.71c0-3.369 1.796-6.545 4.756-8.326l43.002-25.94a10.15 10.15 0 0 1 10.435 0l43.051 25.94zm-3.186 2.192c2.765 1.663 4.442 4.585 4.442 7.776v48.41a8.946 8.946 0 0 1-4.488 7.776L57.85 117.765c-4.306 2.517-8.25.899-9.746 0L7.942 93.538C5.177 91.875 3.5 88.953 3.5 85.762v-48.41c0-3.146 1.677-6.113 4.442-7.776L48.104 5.348a9.479 9.479 0 0 1 9.746 0l40.208 24.228z"/><path id="d" fill-rule="evenodd" d="M101.244 27.384c2.96 1.78 4.756 4.91 4.756 8.326v51.833a9.58 9.58 0 0 1-4.805 8.326l-43.002 25.94c-4.61 2.695-8.833.963-10.435 0L4.756 95.869C1.796 94.089 0 90.959 0 87.543V35.71c0-3.369 1.796-6.545 4.756-8.326l43.002-25.94a10.15 10.15 0 0 1 10.435 0l43.051 25.94zm-3.186 2.192c2.765 1.663 4.442 4.585 4.442 7.776v48.41a8.946 8.946 0 0 1-4.488 7.776L57.85 117.765c-4.306 2.517-8.25.899-9.746 0L7.942 93.538C5.177 91.875 3.5 88.953 3.5 85.762v-48.41c0-3.146 1.677-6.113 4.442-7.776L48.104 5.348a9.479 9.479 0 0 1 9.746 0l40.208 24.228z"/><path id="e" fill-rule="evenodd" d="M101.244 27.384c2.96 1.78 4.756 4.91 4.756 8.326v51.833a9.58 9.58 0 0 1-4.805 8.326l-43.002 25.94c-4.61 2.695-8.833.963-10.435 0L4.756 95.869C1.796 94.089 0 90.959 0 87.543V35.71c0-3.369 1.796-6.545 4.756-8.326l43.002-25.94a10.149 10.149 0 0 1 10.435 0l43.051 25.94zm-3.186 2.192c2.765 1.663 4.442 4.585 4.442 7.776v48.41a8.946 8.946 0 0 1-4.488 7.776L57.85 117.765c-4.306 2.517-8.25.899-9.746 0L7.942 93.538C5.177 91.875 3.5 88.953 3.5 85.762v-48.41c0-3.146 1.677-6.113 4.442-7.776L48.104 5.348a9.479 9.479 0 0 1 9.746 0l40.208 24.228z"/><path id="f" fill-rule="evenodd" d="M101.244 27.384c2.96 1.78 4.756 4.91 4.756 8.326v51.833a9.58 9.58 0 0 1-4.805 8.326l-43.002 25.94c-4.61 2.695-8.833.963-10.435 0L4.756 95.869C1.796 94.089 0 90.959 0 87.543V35.71c0-3.369 1.796-6.545 4.756-8.326l43.002-25.94a10.149 10.149 0 0 1 10.435 0l43.051 25.94zm-3.186 2.192c2.765 1.663 4.442 4.585 4.442 7.776v48.41a8.946 8.946 0 0 1-4.488 7.776L57.85 117.765c-4.306 2.517-8.25.899-9.745 0L7.942 93.538C5.177 91.875 3.5 88.953 3.5 85.762v-48.41c0-3.146 1.677-6.113 4.442-7.776L48.105 5.348a9.479 9.479 0 0 1 9.745 0l40.208 24.228z"/><path id="g" fill-rule="evenodd" d="M101.244 27.384c2.96 1.78 4.756 4.91 4.756 8.326v51.833a9.58 9.58 0 0 1-4.805 8.326l-43.002 25.94c-4.61 2.695-8.833.963-10.435 0L4.756 95.869C1.796 94.089 0 90.959 0 87.543V35.71c0-3.369 1.796-6.545 4.756-8.326l43.002-25.94a10.149 10.149 0 0 1 10.435 0l43.051 25.94zm-3.186 2.192c2.765 1.663 4.442 4.585 4.442 7.776v48.41a8.946 8.946 0 0 1-4.488 7.776L57.85 117.765c-4.306 2.517-8.25.899-9.746 0L7.942 93.538C5.177 91.875 3.5 88.953 3.5 85.762v-48.41c0-3.146 1.677-6.113 4.442-7.776L48.104 5.348a9.479 9.479 0 0 1 9.746 0l40.208 24.228z"/><path id="h" fill-rule="evenodd" d="M101.244 27.384c2.96 1.78 4.756 4.91 4.756 8.326v51.833a9.58 9.58 0 0 1-4.805 8.326l-43.002 25.94c-4.61 2.695-8.833.963-10.435 0L4.756 95.869C1.796 94.089 0 90.959 0 87.543V35.71c0-3.369 1.796-6.545 4.756-8.326l43.002-25.94a10.15 10.15 0 0 1 10.435 0l43.051 25.94zm-3.186 2.192c2.765 1.663 4.442 4.585 4.442 7.776v48.41a8.946 8.946 0 0 1-4.488 7.776L57.85 117.765c-4.306 2.517-8.25.899-9.746 0L7.942 93.538C5.177 91.875 3.5 88.953 3.5 85.762v-48.41c0-3.146 1.677-6.113 4.442-7.776L48.104 5.348a9.479 9.479 0 0 1 9.746 0l40.208 24.228z"/><path id="i" fill-rule="evenodd" d="M101.244 27.384c2.96 1.78 4.756 4.91 4.756 8.326v51.833a9.58 9.58 0 0 1-4.805 8.326l-43.002 25.94c-4.61 2.695-8.833.963-10.435 0L4.756 95.869C1.796 94.089 0 90.959 0 87.543V35.71c0-3.369 1.796-6.545 4.756-8.326l43.002-25.94a10.15 10.15 0 0 1 10.435 0l43.051 25.94zm-3.186 2.192c2.765 1.663 4.442 4.585 4.442 7.776v48.41a8.946 8.946 0 0 1-4.488 7.776L57.85 117.765c-4.306 2.517-8.25.899-9.746 0L7.942 93.538C5.177 91.875 3.5 88.953 3.5 85.762v-48.41c0-3.146 1.677-6.113 4.442-7.776L48.104 5.348a9.479 9.479 0 0 1 9.746 0l40.208 24.228z"/><path id="j" fill-rule="evenodd" d="M101.244 27.384c2.96 1.78 4.756 4.91 4.756 8.326v51.833a9.58 9.58 0 0 1-4.805 8.326l-43.002 25.94c-4.61 2.695-8.833.963-10.435 0L4.756 95.869C1.796 94.089 0 90.959 0 87.543V35.71c0-3.369 1.796-6.545 4.756-8.326l43.002-25.94a10.149 10.149 0 0 1 10.435 0l43.051 25.94zm-3.186 2.192c2.765 1.663 4.442 4.585 4.442 7.776v48.41a8.946 8.946 0 0 1-4.488 7.776L57.85 117.765c-4.306 2.517-8.25.899-9.745 0L7.942 93.538C5.177 91.875 3.5 88.953 3.5 85.762v-48.41c0-3.146 1.677-6.113 4.442-7.776L48.105 5.348a9.479 9.479 0 0 1 9.745 0l40.208 24.228z"/><path id="k" fill-rule="evenodd" d="M101.244 27.384c2.96 1.78 4.756 4.91 4.756 8.326v51.833a9.58 9.58 0 0 1-4.805 8.326l-43.002 25.94c-4.61 2.695-8.833.963-10.435 0L4.756 95.869C1.796 94.089 0 90.959 0 87.543V35.71c0-3.369 1.796-6.545 4.756-8.326l43.002-25.94a10.15 10.15 0 0 1 10.435 0l43.051 25.94zm-3.186 2.192c2.765 1.663 4.442 4.585 4.442 7.776v48.41a8.946 8.946 0 0 1-4.488 7.776L57.85 117.765c-4.306 2.517-8.25.899-9.746 0L7.942 93.538C5.177 91.875 3.5 88.953 3.5 85.762v-48.41c0-3.146 1.677-6.113 4.442-7.776L48.104 5.348a9.479 9.479 0 0 1 9.746 0l40.208 24.228z"/><path id="l" fill-rule="evenodd" d="M101.244 27.384c2.96 1.78 4.756 4.91 4.756 8.326v51.833a9.58 9.58 0 0 1-4.805 8.326l-43.002 25.94c-4.61 2.695-8.833.963-10.435 0L4.756 95.869C1.796 94.089 0 90.959 0 87.543V35.71c0-3.369 1.796-6.545 4.756-8.326l43.002-25.94a10.15 10.15 0 0 1 10.435 0l43.051 25.94zm-3.186 2.192c2.765 1.663 4.442 4.585 4.442 7.776v48.41a8.946 8.946 0 0 1-4.488 7.776L57.85 117.765c-4.306 2.517-8.25.899-9.746 0L7.942 93.538C5.177 91.875 3.5 88.953 3.5 85.762v-48.41c0-3.146 1.677-6.113 4.442-7.776L48.104 5.348a9.479 9.479 0 0 1 9.746 0l40.208 24.228z"/><path id="m" fill-rule="evenodd" d="M101.244 27.384c2.96 1.78 4.756 4.91 4.756 8.326v51.833a9.58 9.58 0 0 1-4.805 8.326l-43.002 25.94c-4.61 2.695-8.833.963-10.435 0L4.756 95.869C1.796 94.089 0 90.959 0 87.543V35.71c0-3.369 1.796-6.545 4.756-8.326l43.002-25.94a10.149 10.149 0 0 1 10.435 0l43.051 25.94zm-3.186 2.192c2.765 1.663 4.442 4.585 4.442 7.776v48.41a8.946 8.946 0 0 1-4.488 7.776L57.85 117.765c-4.306 2.517-8.25.899-9.746 0L7.942 93.538C5.177 91.875 3.5 88.953 3.5 85.762v-48.41c0-3.146 1.677-6.113 4.442-7.776L48.104 5.348a9.479 9.479 0 0 1 9.746 0l40.208 24.228z"/><path id="n" fill-rule="evenodd" d="M101.244 27.384c2.96 1.78 4.756 4.91 4.756 8.326v51.833a9.58 9.58 0 0 1-4.805 8.326l-43.002 25.94c-4.61 2.695-8.833.963-10.435 0L4.756 95.869C1.796 94.089 0 90.959 0 87.543V35.71c0-3.369 1.796-6.545 4.756-8.326l43.002-25.94a10.149 10.149 0 0 1 10.435 0l43.051 25.94zm-3.186 2.192c2.765 1.663 4.442 4.585 4.442 7.776v48.41a8.946 8.946 0 0 1-4.488 7.776L57.85 117.765c-4.306 2.517-8.25.899-9.746 0L7.942 93.538C5.177 91.875 3.5 88.953 3.5 85.762v-48.41c0-3.146 1.677-6.113 4.442-7.776L48.104 5.348a9.479 9.479 0 0 1 9.746 0l40.208 24.228z"/><path id="o" fill-rule="evenodd" d="M101.244 27.384c2.96 1.78 4.756 4.91 4.756 8.326v51.833a9.58 9.58 0 0 1-4.805 8.326l-43.002 25.94c-4.61 2.695-8.833.963-10.435 0L4.756 95.869C1.796 94.089 0 90.959 0 87.543V35.71c0-3.369 1.796-6.545 4.756-8.326l43.002-25.94a10.15 10.15 0 0 1 10.435 0l43.051 25.94zm-3.186 2.192c2.765 1.663 4.442 4.585 4.442 7.776v48.41a8.946 8.946 0 0 1-4.488 7.776L57.85 117.765c-4.306 2.517-8.25.899-9.746 0L7.942 93.538C5.177 91.875 3.5 88.953 3.5 85.762v-48.41c0-3.146 1.677-6.113 4.442-7.776L48.104 5.348a9.479 9.479 0 0 1 9.746 0l40.208 24.228z"/><path id="p" fill-rule="evenodd" d="M101.244 27.384c2.96 1.78 4.756 4.91 4.756 8.326v51.833a9.58 9.58 0 0 1-4.805 8.326l-43.002 25.94c-4.61 2.695-8.833.963-10.435 0L4.756 95.869C1.796 94.089 0 90.959 0 87.543V35.71c0-3.369 1.796-6.545 4.756-8.326l43.002-25.94a10.15 10.15 0 0 1 10.435 0l43.051 25.94zm-3.186 2.192c2.765 1.663 4.442 4.585 4.442 7.776v48.41a8.946 8.946 0 0 1-4.488 7.776L57.85 117.765c-4.306 2.517-8.25.899-9.746 0L7.942 93.538C5.177 91.875 3.5 88.953 3.5 85.762v-48.41c0-3.146 1.677-6.113 4.442-7.776L48.104 5.348a9.479 9.479 0 0 1 9.746 0l40.208 24.228z"/><path id="q" fill-rule="evenodd" d="M101.244 27.384c2.96 1.78 4.756 4.91 4.756 8.326v51.833a9.58 9.58 0 0 1-4.805 8.326l-43.002 25.94c-4.61 2.695-8.833.963-10.435 0L4.756 95.869C1.796 94.089 0 90.959 0 87.543V35.71c0-3.369 1.796-6.545 4.756-8.326l43.002-25.94a10.15 10.15 0 0 1 10.435 0l43.051 25.94zm-3.186 2.192c2.765 1.663 4.442 4.585 4.442 7.776v48.41a8.946 8.946 0 0 1-4.488 7.776L57.85 117.765c-4.306 2.517-8.25.899-9.746 0L7.942 93.538C5.177 91.875 3.5 88.953 3.5 85.762v-48.41c0-3.146 1.677-6.113 4.442-7.776L48.104 5.348a9.479 9.479 0 0 1 9.746 0l40.208 24.228z"/><path id="r" fill-rule="evenodd" d="M101.244 27.384c2.96 1.78 4.756 4.91 4.756 8.326v51.833a9.58 9.58 0 0 1-4.805 8.326l-43.002 25.94c-4.61 2.695-8.833.963-10.435 0L4.756 95.869C1.796 94.089 0 90.959 0 87.543V35.71c0-3.369 1.796-6.545 4.756-8.326l43.002-25.94a10.149 10.149 0 0 1 10.435 0l43.051 25.94zm-3.186 2.192c2.765 1.663 4.442 4.585 4.442 7.776v48.41a8.946 8.946 0 0 1-4.488 7.776L57.85 117.765c-4.306 2.517-8.25.899-9.745 0L7.942 93.538C5.177 91.875 3.5 88.953 3.5 85.762v-48.41c0-3.146 1.677-6.113 4.442-7.776L48.105 5.348a9.479 9.479 0 0 1 9.745 0l40.208 24.228z"/><path id="s" fill-rule="evenodd" d="M101.244 27.384c2.96 1.78 4.756 4.91 4.756 8.326v51.833a9.58 9.58 0 0 1-4.805 8.326l-43.002 25.94c-4.61 2.695-8.833.963-10.435 0L4.756 95.869C1.796 94.089 0 90.959 0 87.543V35.71c0-3.369 1.796-6.545 4.756-8.326l43.002-25.94a10.15 10.15 0 0 1 10.435 0l43.051 25.94zm-3.186 2.192c2.765 1.663 4.442 4.585 4.442 7.776v48.41a8.946 8.946 0 0 1-4.488 7.776L57.85 117.765c-4.306 2.517-8.25.899-9.746 0L7.942 93.538C5.177 91.875 3.5 88.953 3.5 85.762v-48.41c0-3.146 1.677-6.113 4.442-7.776L48.104 5.348a9.479 9.479 0 0 1 9.746 0l40.208 24.228z"/><path id="t" fill-rule="evenodd" d="M101.244 27.384c2.96 1.78 4.756 4.91 4.756 8.326v51.833a9.58 9.58 0 0 1-4.805 8.326l-43.002 25.94c-4.61 2.695-8.833.963-10.435 0L4.756 95.869C1.796 94.089 0 90.959 0 87.543V35.71c0-3.369 1.796-6.545 4.756-8.326l43.002-25.94a10.15 10.15 0 0 1 10.435 0l43.051 25.94zm-3.186 2.192c2.765 1.663 4.442 4.585 4.442 7.776v48.41a8.946 8.946 0 0 1-4.488 7.776L57.85 117.765c-4.306 2.517-8.25.899-9.746 0L7.942 93.538C5.177 91.875 3.5 88.953 3.5 85.762v-48.41c0-3.146 1.677-6.113 4.442-7.776L48.104 5.348a9.479 9.479 0 0 1 9.746 0l40.208 24.228z"/><path id="u" fill-rule="evenodd" d="M101.244 27.384c2.96 1.78 4.756 4.91 4.756 8.326v51.833a9.58 9.58 0 0 1-4.805 8.326l-43.002 25.94c-4.61 2.695-8.833.963-10.435 0L4.756 95.869C1.796 94.089 0 90.959 0 87.543V35.71c0-3.369 1.796-6.545 4.756-8.326l43.002-25.94a10.149 10.149 0 0 1 10.435 0l43.051 25.94zm-3.186 2.192c2.765 1.663 4.442 4.585 4.442 7.776v48.41a8.946 8.946 0 0 1-4.488 7.776L57.85 117.765c-4.306 2.517-8.25.899-9.746 0L7.942 93.538C5.177 91.875 3.5 88.953 3.5 85.762v-48.41c0-3.146 1.677-6.113 4.442-7.776L48.104 5.348a9.479 9.479 0 0 1 9.746 0l40.208 24.228z"/><path id="v" fill-rule="evenodd" d="M101.244 27.384c2.96 1.78 4.756 4.91 4.756 8.326v51.833a9.58 9.58 0 0 1-4.805 8.326l-43.002 25.94c-4.61 2.695-8.833.963-10.435 0L4.756 95.869C1.796 94.089 0 90.959 0 87.543V35.71c0-3.369 1.796-6.545 4.756-8.326l43.002-25.94a10.149 10.149 0 0 1 10.435 0l43.051 25.94zm-3.186 2.192c2.765 1.663 4.442 4.585 4.442 7.776v48.41a8.946 8.946 0 0 1-4.488 7.776L57.85 117.765c-4.306 2.517-8.25.899-9.746 0L7.942 93.538C5.177 91.875 3.5 88.953 3.5 85.762v-48.41c0-3.146 1.677-6.113 4.442-7.776L48.104 5.348a9.479 9.479 0 0 1 9.746 0l40.208 24.228z"/><path id="w" fill-rule="evenodd" d="M101.244 27.384c2.96 1.78 4.756 4.91 4.756 8.326v51.833a9.58 9.58 0 0 1-4.805 8.326l-43.002 25.94c-4.61 2.695-8.833.963-10.435 0L4.756 95.869C1.796 94.089 0 90.959 0 87.543V35.71c0-3.369 1.796-6.545 4.756-8.326l43.002-25.94a10.15 10.15 0 0 1 10.435 0l43.051 25.94zm-3.186 2.192c2.765 1.663 4.442 4.585 4.442 7.776v48.41a8.946 8.946 0 0 1-4.488 7.776L57.85 117.765c-4.306 2.517-8.25.899-9.746 0L7.942 93.538C5.177 91.875 3.5 88.953 3.5 85.762v-48.41c0-3.146 1.677-6.113 4.442-7.776L48.104 5.348a9.479 9.479 0 0 1 9.746 0l40.208 24.228z"/><path id="x" fill-rule="evenodd" d="M101.244 27.384c2.96 1.78 4.756 4.91 4.756 8.326v51.833a9.58 9.58 0 0 1-4.805 8.326l-43.002 25.94c-4.61 2.695-8.833.963-10.435 0L4.756 95.869C1.796 94.089 0 90.959 0 87.543V35.71c0-3.369 1.796-6.545 4.756-8.326l43.002-25.94a10.15 10.15 0 0 1 10.435 0l43.051 25.94zm-3.186 2.192c2.765 1.663 4.442 4.585 4.442 7.776v48.41a8.946 8.946 0 0 1-4.488 7.776L57.85 117.765c-4.306 2.517-8.25.899-9.746 0L7.942 93.538C5.177 91.875 3.5 88.953 3.5 85.762v-48.41c0-3.146 1.677-6.113 4.442-7.776L48.104 5.348a9.479 9.479 0 0 1 9.746 0l40.208 24.228z"/><path id="y" fill-rule="evenodd" d="M101.244 27.384c2.96 1.78 4.756 4.91 4.756 8.326v51.833a9.58 9.58 0 0 1-4.805 8.326l-43.002 25.94c-4.61 2.695-8.833.963-10.435 0L4.756 95.869C1.796 94.089 0 90.959 0 87.543V35.71c0-3.369 1.796-6.545 4.756-8.326l43.002-25.94a10.149 10.149 0 0 1 10.435 0l43.051 25.94zm-3.186 2.192c2.765 1.663 4.442 4.585 4.442 7.776v48.41a8.946 8.946 0 0 1-4.488 7.776L57.85 117.765c-4.306 2.517-8.25.899-9.745 0L7.942 93.538C5.177 91.875 3.5 88.953 3.5 85.762v-48.41c0-3.146 1.677-6.113 4.442-7.776L48.105 5.348a9.479 9.479 0 0 1 9.745 0l40.208 24.228z"/><path id="z" fill-rule="evenodd" d="M101.244 27.384c2.96 1.78 4.756 4.91 4.756 8.326v51.833a9.58 9.58 0 0 1-4.805 8.326l-43.002 25.94c-4.61 2.695-8.833.963-10.435 0L4.756 95.869C1.796 94.089 0 90.959 0 87.543V35.71c0-3.369 1.796-6.545 4.756-8.326l43.002-25.94a10.149 10.149 0 0 1 10.435 0l43.051 25.94zm-3.186 2.192c2.765 1.663 4.442 4.585 4.442 7.776v48.41a8.946 8.946 0 0 1-4.488 7.776L57.85 117.765c-4.306 2.517-8.25.899-9.746 0L7.942 93.538C5.177 91.875 3.5 88.953 3.5 85.762v-48.41c0-3.146 1.677-6.113 4.442-7.776L48.104 5.348a9.479 9.479 0 0 1 9.746 0l40.208 24.228z"/><path id="A" fill-rule="evenodd" d="M101.244 27.384c2.96 1.78 4.756 4.91 4.756 8.326v51.833a9.58 9.58 0 0 1-4.805 8.326l-43.002 25.94c-4.61 2.695-8.833.963-10.435 0L4.756 95.869C1.796 94.089 0 90.959 0 87.543V35.71c0-3.369 1.796-6.545 4.756-8.326l43.002-25.94a10.149 10.149 0 0 1 10.435 0l43.051 25.94zm-3.186 2.192c2.765 1.663 4.442 4.585 4.442 7.776v48.41a8.946 8.946 0 0 1-4.488 7.776L57.85 117.765c-4.306 2.517-8.25.899-9.746 0L7.942 93.538C5.177 91.875 3.5 88.953 3.5 85.762v-48.41c0-3.146 1.677-6.113 4.442-7.776L48.104 5.348a9.479 9.479 0 0 1 9.746 0l40.208 24.228z"/><path id="B" fill-rule="evenodd" d="M101.244 27.384c2.96 1.78 4.756 4.91 4.756 8.326v51.833a9.58 9.58 0 0 1-4.805 8.326l-43.002 25.94c-4.61 2.695-8.833.963-10.435 0L4.756 95.869C1.796 94.089 0 90.959 0 87.543V35.71c0-3.369 1.796-6.545 4.756-8.326l43.002-25.94a10.149 10.149 0 0 1 10.435 0l43.051 25.94zm-3.186 2.192c2.765 1.663 4.442 4.585 4.442 7.776v48.41a8.946 8.946 0 0 1-4.488 7.776L57.85 117.765c-4.306 2.517-8.25.899-9.746 0L7.942 93.538C5.177 91.875 3.5 88.953 3.5 85.762v-48.41c0-3.146 1.677-6.113 4.442-7.776L48.104 5.348a9.479 9.479 0 0 1 9.746 0l40.208 24.228z"/><path id="C" fill-rule="evenodd" d="M101.244 27.384c2.96 1.78 4.756 4.91 4.756 8.326v51.833a9.58 9.58 0 0 1-4.805 8.326l-43.002 25.94c-4.61 2.695-8.833.963-10.435 0L4.756 95.869C1.796 94.089 0 90.959 0 87.543V35.71c0-3.369 1.796-6.545 4.756-8.326l43.002-25.94a10.15 10.15 0 0 1 10.435 0l43.051 25.94zm-3.186 2.192c2.765 1.663 4.442 4.585 4.442 7.776v48.41a8.946 8.946 0 0 1-4.488 7.776L57.85 117.765c-4.306 2.517-8.25.899-9.746 0L7.942 93.538C5.177 91.875 3.5 88.953 3.5 85.762v-48.41c0-3.146 1.677-6.113 4.442-7.776L48.104 5.348a9.479 9.479 0 0 1 9.746 0l40.208 24.228z"/><path id="D" fill-rule="evenodd" d="M101.244 27.384c2.96 1.78 4.756 4.91 4.756 8.326v51.833a9.58 9.58 0 0 1-4.805 8.326l-43.002 25.94c-4.61 2.695-8.833.963-10.435 0L4.756 95.869C1.796 94.089 0 90.959 0 87.543V35.71c0-3.369 1.796-6.545 4.756-8.326l43.002-25.94a10.15 10.15 0 0 1 10.435 0l43.051 25.94zm-3.186 2.192c2.765 1.663 4.442 4.585 4.442 7.776v48.41a8.946 8.946 0 0 1-4.488 7.776L57.85 117.765c-4.306 2.517-8.25.899-9.746 0L7.942 93.538C5.177 91.875 3.5 88.953 3.5 85.762v-48.41c0-3.146 1.677-6.113 4.442-7.776L48.104 5.348a9.479 9.479 0 0 1 9.746 0l40.208 24.228z"/><path id="E" fill-rule="evenodd" d="M101.244 27.384c2.96 1.78 4.756 4.91 4.756 8.326v51.833a9.58 9.58 0 0 1-4.805 8.326l-43.002 25.94c-4.61 2.695-8.833.963-10.435 0L4.756 95.869C1.796 94.089 0 90.959 0 87.543V35.71c0-3.369 1.796-6.545 4.756-8.326l43.002-25.94a10.15 10.15 0 0 1 10.435 0l43.051 25.94zm-3.186 2.192c2.765 1.663 4.442 4.585 4.442 7.776v48.41a8.946 8.946 0 0 1-4.488 7.776L57.85 117.765c-4.306 2.517-8.25.899-9.746 0L7.942 93.538C5.177 91.875 3.5 88.953 3.5 85.762v-48.41c0-3.146 1.677-6.113 4.442-7.776L48.104 5.348a9.479 9.479 0 0 1 9.746 0l40.208 24.228z"/><path id="F" fill-rule="evenodd" d="M101.244 27.384c2.96 1.78 4.756 4.91 4.756 8.326v51.833a9.58 9.58 0 0 1-4.805 8.326l-43.002 25.94c-4.61 2.695-8.833.963-10.435 0L4.756 95.869C1.796 94.089 0 90.959 0 87.543V35.71c0-3.369 1.796-6.545 4.756-8.326l43.002-25.94a10.149 10.149 0 0 1 10.435 0l43.051 25.94zm-3.186 2.192c2.765 1.663 4.442 4.585 4.442 7.776v48.41a8.946 8.946 0 0 1-4.488 7.776L57.85 117.765c-4.306 2.517-8.25.899-9.745 0L7.942 93.538C5.177 91.875 3.5 88.953 3.5 85.762v-48.41c0-3.146 1.677-6.113 4.442-7.776L48.105 5.348a9.479 9.479 0 0 1 9.745 0l40.208 24.228z"/><path id="G" fill-rule="evenodd" d="M101.244 27.384c2.96 1.78 4.756 4.91 4.756 8.326v51.833a9.58 9.58 0 0 1-4.805 8.326l-43.002 25.94c-4.61 2.695-8.833.963-10.435 0L4.756 95.869C1.796 94.089 0 90.959 0 87.543V35.71c0-3.369 1.796-6.545 4.756-8.326l43.002-25.94a10.15 10.15 0 0 1 10.435 0l43.051 25.94zm-3.186 2.192c2.765 1.663 4.442 4.585 4.442 7.776v48.41a8.946 8.946 0 0 1-4.488 7.776L57.85 117.765c-4.306 2.517-8.25.899-9.746 0L7.942 93.538C5.177 91.875 3.5 88.953 3.5 85.762v-48.41c0-3.146 1.677-6.113 4.442-7.776L48.104 5.348a9.479 9.479 0 0 1 9.746 0l40.208 24.228z"/><path id="H" fill-rule="evenodd" d="M101.244 27.384c2.96 1.78 4.756 4.91 4.756 8.326v51.833a9.58 9.58 0 0 1-4.805 8.326l-43.002 25.94c-4.61 2.695-8.833.963-10.435 0L4.756 95.869C1.796 94.089 0 90.959 0 87.543V35.71c0-3.369 1.796-6.545 4.756-8.326l43.002-25.94a10.15 10.15 0 0 1 10.435 0l43.051 25.94zm-3.186 2.192c2.765 1.663 4.442 4.585 4.442 7.776v48.41a8.946 8.946 0 0 1-4.488 7.776L57.85 117.765c-4.306 2.517-8.25.899-9.746 0L7.942 93.538C5.177 91.875 3.5 88.953 3.5 85.762v-48.41c0-3.146 1.677-6.113 4.442-7.776L48.104 5.348a9.48 9.48 0 0 1 9.746 0l40.208 24.228z"/><path id="I" fill-rule="evenodd" d="M101.244 27.384c2.96 1.78 4.756 4.91 4.756 8.326v51.833a9.58 9.58 0 0 1-4.805 8.326l-43.002 25.94c-4.61 2.695-8.833.963-10.435 0L4.756 95.869C1.796 94.089 0 90.959 0 87.543V35.71c0-3.369 1.796-6.545 4.756-8.326l43.002-25.94a10.15 10.15 0 0 1 10.435 0l43.051 25.94zm-3.186 2.192c2.765 1.663 4.442 4.585 4.442 7.776v48.41a8.946 8.946 0 0 1-4.488 7.776L57.85 117.765c-4.306 2.517-8.25.899-9.746 0L7.942 93.538C5.177 91.875 3.5 88.953 3.5 85.762v-48.41c0-3.146 1.677-6.113 4.442-7.776L48.104 5.348a9.479 9.479 0 0 1 9.746 0l40.208 24.228z"/><path id="J" fill-rule="evenodd" d="M101.244 27.384c2.96 1.78 4.756 4.91 4.756 8.326v51.833a9.58 9.58 0 0 1-4.805 8.326l-43.002 25.94c-4.61 2.695-8.833.963-10.435 0L4.756 95.869C1.796 94.089 0 90.959 0 87.543V35.71c0-3.369 1.796-6.545 4.756-8.326l43.002-25.94a10.15 10.15 0 0 1 10.435 0l43.051 25.94zm-3.186 2.192c2.765 1.663 4.442 4.585 4.442 7.776v48.41a8.946 8.946 0 0 1-4.488 7.776L57.85 117.765c-4.306 2.517-8.25.899-9.746 0L7.942 93.538C5.177 91.875 3.5 88.953 3.5 85.762v-48.41c0-3.146 1.677-6.113 4.442-7.776L48.104 5.348a9.48 9.48 0 0 1 9.746 0l40.208 24.228z"/></defs></svg>